<?xml version="1.0" standalone="no"?>
<!DOCTYPE svg PUBLIC "-//W3C//DTD SVG 1.0//EN" "http://www.w3.org/TR/2001/REC-SVG-20010904/DTD/svg10.dtd">
<svg xmlns="http://www.w3.org/2000/svg" xmlns:xlink="http://www.w3.org/1999/xlink" id="body_1" width="667" height="667">

<g transform="matrix(1.334 0 0 1.334 0 0)">
	<g transform="matrix(0.1 0 -0 -0.1 0 500)">
        <path d="M2465 4010C 2462 4004 2466 4003 2474 4006C 2492 4013 2495 4020 2481 4020C 2475 4020 2468 4016 2465 4010z" stroke="none" fill="#000000" fill-rule="nonzero" />
        <path d="M2500 4006C 2500 4004 2508 3996 2518 3989C 2533 3976 2534 3977 2521 3993C 2508 4009 2500 4014 2500 4006z" stroke="none" fill="#000000" fill-rule="nonzero" />
        <path d="M2480 3996C 2480 3994 2488 3986 2498 3979C 2513 3966 2514 3967 2501 3983C 2488 3999 2480 4004 2480 3996z" stroke="none" fill="#000000" fill-rule="nonzero" />
        <path d="M2463 3977C 2464 3971 2476 3957 2489 3946C 2512 3927 2512 3926 2494 3918C 2479 3911 2480 3910 2499 3914C 2512 3917 2531 3915 2539 3910C 2552 3904 2556 3906 2556 3920C 2556 3930 2553 3937 2550 3935C 2547 3933 2526 3945 2502 3961C 2479 3976 2461 3984 2463 3977z" stroke="none" fill="#000000" fill-rule="nonzero" />
        <path d="M2420 3951C 2420 3941 2445 3930 2468 3930C 2483 3931 2482 3933 2466 3945C 2444 3962 2420 3965 2420 3951z" stroke="none" fill="#000000" fill-rule="nonzero" />
        <path d="M2383 3873C 2392 3871 2406 3871 2413 3873C 2419 3876 2412 3878 2395 3878C 2379 3878 2373 3876 2383 3873z" stroke="none" fill="#000000" fill-rule="nonzero" />
        <path d="M2120 3853C 2120 3847 2131 3828 2145 3812C 2164 3789 2189 3777 2248 3761C 2328 3740 2394 3733 2333 3752C 2303 3762 2302 3764 2318 3776C 2334 3789 2334 3790 2316 3783C 2303 3779 2299 3780 2304 3788C 2309 3796 2305 3798 2294 3793C 2281 3788 2279 3790 2285 3800C 2290 3809 2289 3811 2281 3806C 2274 3801 2246 3808 2218 3820C 2153 3848 2144 3839 2207 3806C 2233 3792 2251 3781 2247 3780C 2232 3780 2175 3812 2148 3838C 2132 3852 2120 3859 2120 3853z" stroke="none" fill="#000000" fill-rule="nonzero" />
        <path d="M2360 3850C 2360 3837 2405 3826 2426 3834C 2434 3837 2438 3844 2435 3850C 2427 3863 2360 3863 2360 3850z" stroke="none" fill="#000000" fill-rule="nonzero" />
        <path d="M2625 3840C 2631 3811 2636 3806 2643 3824C 2646 3832 2643 3844 2635 3850C 2623 3860 2622 3858 2625 3840z" stroke="none" fill="#000000" fill-rule="nonzero" />
        <path d="M2398 3813C 2405 3810 2414 3811 2417 3814C 2421 3817 2415 3820 2404 3819C 2393 3819 2390 3816 2398 3813z" stroke="none" fill="#000000" fill-rule="nonzero" />
        <path d="M2560 3810C 2537 3803 2537 3802 2557 3801C 2569 3800 2582 3805 2585 3810C 2588 3816 2590 3820 2588 3819C 2586 3818 2574 3814 2560 3810z" stroke="none" fill="#000000" fill-rule="nonzero" />
        <path d="M2135 3790C 2145 3779 2155 3770 2158 3770C 2161 3770 2155 3779 2145 3790C 2135 3801 2125 3810 2122 3810C 2119 3810 2125 3801 2135 3790z" stroke="none" fill="#000000" fill-rule="nonzero" />
        <path d="M1785 3779C 1782 3775 1798 3760 1820 3748C 1944 3679 1940 3680 2030 3680C 2077 3681 2138 3687 2165 3694C 2214 3708 2214 3708 2110 3705C 2021 3703 2016 3703 2080 3709C 2171 3716 2150 3726 2010 3740C 1958 3745 1887 3758 1852 3769C 1818 3779 1788 3784 1785 3779zM1840 3760C 1848 3755 1851 3750 1845 3750C 1840 3750 1828 3755 1820 3760C 1812 3765 1810 3770 1815 3770C 1821 3770 1832 3765 1840 3760zM1890 3740C 1898 3735 1901 3730 1895 3730C 1890 3730 1878 3735 1870 3740C 1862 3745 1860 3750 1865 3750C 1871 3750 1882 3745 1890 3740zM1960 3720C 1980 3714 1981 3712 1965 3712C 1954 3712 1936 3715 1925 3720C 1900 3731 1926 3731 1960 3720z" stroke="none" fill="#000000" fill-rule="nonzero" />
        <path d="M2543 3783C 2552 3781 2558 3774 2555 3769C 2546 3755 2556 3758 2568 3773C 2576 3783 2573 3786 2552 3787C 2537 3787 2533 3786 2543 3783z" stroke="none" fill="#000000" fill-rule="nonzero" />
        <path d="M1918 3763C 1925 3760 1934 3761 1937 3764C 1941 3767 1935 3770 1924 3769C 1913 3769 1910 3766 1918 3763z" stroke="none" fill="#000000" fill-rule="nonzero" />
        <path d="M2003 3753C 2012 3751 2028 3751 2038 3753C 2047 3756 2039 3758 2020 3758C 2001 3758 1993 3756 2003 3753z" stroke="none" fill="#000000" fill-rule="nonzero" />
        <path d="M2754 3743C 2756 3729 2749 3724 2721 3719C 2687 3713 2688 3713 2734 3711C 2778 3710 2781 3712 2769 3727C 2761 3736 2757 3745 2758 3747C 2760 3750 2759 3754 2757 3757C 2754 3760 2753 3754 2754 3743z" stroke="none" fill="#000000" fill-rule="nonzero" />
        <path d="M2463 3743C 2472 3741 2486 3741 2493 3743C 2499 3746 2492 3748 2475 3748C 2459 3748 2453 3746 2463 3743z" stroke="none" fill="#000000" fill-rule="nonzero" />
        <path d="M2558 3733C 2565 3730 2574 3731 2577 3734C 2581 3737 2575 3740 2564 3739C 2553 3739 2550 3736 2558 3733z" stroke="none" fill="#000000" fill-rule="nonzero" />
        <path d="M2618 3723C 2624 3721 2636 3721 2643 3723C 2649 3726 2644 3728 2630 3728C 2616 3728 2611 3726 2618 3723z" stroke="none" fill="#000000" fill-rule="nonzero" />
        <path d="M2238 3713C 2250 3711 2270 3711 2283 3713C 2295 3715 2285 3717 2260 3717C 2235 3717 2225 3715 2238 3713z" stroke="none" fill="#000000" fill-rule="nonzero" />
        <path d="M2411 3709C 2339 3695 2279 3659 2244 3610C 2226 3585 2211 3561 2211 3555C 2211 3550 2215 3553 2221 3563C 2227 3572 2236 3578 2241 3574C 2247 3571 2276 3585 2307 3605C 2337 3625 2368 3639 2376 3636C 2384 3633 2389 3634 2386 3639C 2380 3647 2493 3700 2520 3701C 2543 3702 2499 3719 2475 3718C 2464 3718 2435 3714 2411 3709zM2445 3690C 2418 3678 2402 3678 2420 3690C 2428 3695 2442 3699 2450 3699C 2460 3699 2458 3696 2445 3690zM2360 3656C 2360 3654 2353 3649 2344 3646C 2336 3643 2332 3644 2335 3650C 2341 3660 2360 3664 2360 3656zM2300 3619C 2273 3598 2229 3572 2245 3587C 2264 3605 2313 3640 2319 3640C 2322 3640 2314 3631 2300 3619z" stroke="none" fill="#000000" fill-rule="nonzero" />
        <path d="M2296 3701C 2285 3697 2281 3691 2286 3688C 2291 3685 2309 3689 2325 3696C 2347 3706 2350 3709 2335 3709C 2324 3709 2306 3705 2296 3701z" stroke="none" fill="#000000" fill-rule="nonzero" />
        <path d="M2730 3690C 2712 3678 2728 3678 2755 3690C 2768 3696 2770 3699 2760 3699C 2752 3699 2738 3695 2730 3690z" stroke="none" fill="#000000" fill-rule="nonzero" />
        <path d="M3311 3670C 3247 3641 3194 3595 3128 3512C 3016 3371 2902 3151 2810 2897L2810 2897L2769 2785L2689 2742C 2646 2718 2610 2704 2610 2710C 2610 2715 2623 2780 2639 2853C 2704 3145 2742 3355 2736 3388C 2730 3426 2690 3484 2659 3501C 2632 3515 2594 3505 2585 3483C 2582 3473 2561 3371 2539 3255C 2517 3140 2481 2964 2459 2865C 2437 2766 2413 2653 2405 2614C 2390 2532 2373 2496 2331 2456L2331 2456L2300 2426L2300 2464L2300 2501L2257 2466C 2224 2439 2211 2433 2202 2442C 2195 2449 2199 2436 2210 2415C 2221 2393 2230 2356 2230 2332C 2230 2303 2234 2291 2241 2296C 2255 2304 2249 2283 2208 2180C 2192 2139 2176 2098 2173 2090C 2170 2082 2189 2096 2216 2121C 2284 2184 2333 2203 2414 2198L2414 2198L2479 2194L2485 2230C 2488 2250 2497 2279 2505 2293L2505 2293L2519 2320L2485 2294C 2447 2265 2334 2226 2318 2237C 2312 2240 2310 2239 2313 2233C 2317 2227 2313 2215 2306 2205C 2295 2189 2293 2197 2296 2257C 2298 2320 2319 2390 2336 2390C 2342 2390 2334 2318 2323 2270C 2317 2248 2318 2246 2333 2259C 2343 2266 2350 2269 2350 2266C 2350 2262 2369 2272 2393 2289C 2417 2305 2455 2323 2478 2329C 2514 2339 2520 2345 2526 2375C 2529 2395 2542 2423 2553 2438C 2565 2453 2549 2442 2520 2414C 2490 2386 2444 2351 2418 2336C 2392 2321 2368 2300 2365 2289C 2361 2278 2356 2271 2353 2274C 2345 2281 2409 2395 2433 2418C 2445 2430 2480 2454 2510 2472C 2540 2490 2565 2510 2565 2515C 2565 2521 2571 2551 2578 2582C 2591 2639 2591 2639 2664 2680C 2705 2702 2740 2720 2743 2720C 2747 2720 2745 2708 2739 2693C 2733 2677 2713 2603 2695 2528C 2576 2044 2669 1783 2916 1905C 2959 1926 3009 1968 3098 2057C 3165 2124 3220 2184 3220 2190C 3220 2196 3213 2203 3205 2206C 3194 2210 3155 2177 3082 2102C 2920 1936 2862 1909 2823 1983C 2772 2079 2815 2431 2918 2754C 2937 2812 2937 2813 3016 2854C 3177 2937 3316 3056 3400 3181C 3424 3216 3447 3247 3452 3248C 3456 3250 3460 3261 3460 3272C 3460 3287 3464 3290 3478 3285C 3490 3281 3492 3282 3484 3290C 3476 3298 3479 3317 3497 3361C 3584 3576 3481 3747 3311 3670zM2271 2353C 2259 2333 2257 2339 2266 2365C 2270 2374 2275 2379 2277 2376C 2280 2374 2277 2363 2271 2353z" stroke="none" fill="#000000" fill-rule="nonzero" />
        <path d="M2618 3673C 2624 3671 2636 3671 2643 3673C 2649 3676 2644 3678 2630 3678C 2616 3678 2611 3676 2618 3673z" stroke="none" fill="#000000" fill-rule="nonzero" />
        <path d="M2758 3673C 2765 3670 2774 3671 2777 3674C 2781 3677 2775 3680 2764 3679C 2753 3679 2750 3676 2758 3673z" stroke="none" fill="#000000" fill-rule="nonzero" />
        <path d="M1973 3663C 1982 3661 1996 3661 2003 3663C 2009 3666 2002 3668 1985 3668C 1969 3668 1963 3666 1973 3663z" stroke="none" fill="#000000" fill-rule="nonzero" />
        <path d="M2085 3660C 2082 3654 2086 3653 2094 3656C 2112 3663 2115 3670 2101 3670C 2095 3670 2088 3666 2085 3660z" stroke="none" fill="#000000" fill-rule="nonzero" />
        <path d="M2927 3659C 2934 3652 2942 3649 2945 3652C 2948 3655 2943 3661 2933 3664C 2919 3670 2918 3669 2927 3659z" stroke="none" fill="#000000" fill-rule="nonzero" />
        <path d="M2553 3644C 2500 3618 2526 3609 2588 3632C 2659 3658 2661 3660 2619 3660C 2600 3660 2570 3652 2553 3644z" stroke="none" fill="#000000" fill-rule="nonzero" />
        <path d="M2001 3601C 1971 3586 1951 3571 1956 3568C 1961 3565 1990 3578 2020 3596C 2087 3637 2076 3640 2001 3601z" stroke="none" fill="#000000" fill-rule="nonzero" />
        <path d="M2029 3585C 1988 3561 1943 3530 1927 3515C 1892 3482 1865 3441 1873 3433C 1877 3430 1874 3418 1868 3406C 1857 3386 1858 3386 1877 3403C 1888 3412 1899 3418 1902 3415C 1904 3412 1917 3421 1930 3435C 1943 3449 1950 3460 1945 3460C 1940 3460 1949 3474 1965 3490C 2009 3536 1979 3526 1926 3477C 1901 3453 1880 3436 1880 3440C 1880 3456 2066 3600 2086 3600C 2091 3600 2078 3589 2057 3575C 2015 3546 2014 3544 2035 3536C 2043 3533 2049 3536 2047 3543C 2046 3550 2053 3554 2063 3554C 2073 3553 2079 3555 2076 3558C 2072 3561 2081 3576 2096 3591C 2138 3635 2109 3632 2029 3585zM1940 3457C 1940 3455 1930 3445 1918 3434L1918 3434L1895 3415L1914 3438C 1932 3459 1940 3465 1940 3457z" stroke="none" fill="#000000" fill-rule="nonzero" />
        <path d="M2124 3598L2095 3565L2128 3594C 2158 3622 2165 3630 2157 3630C 2155 3630 2141 3615 2124 3598z" stroke="none" fill="#000000" fill-rule="nonzero" />
        <path d="M1818 3563C 1825 3560 1834 3561 1837 3564C 1841 3567 1835 3570 1824 3569C 1813 3569 1810 3566 1818 3563z" stroke="none" fill="#000000" fill-rule="nonzero" />
        <path d="M1733 3553C 1742 3551 1756 3551 1763 3553C 1769 3556 1762 3558 1745 3558C 1729 3558 1723 3556 1733 3553z" stroke="none" fill="#000000" fill-rule="nonzero" />
        <path d="M1658 3543C 1665 3540 1674 3541 1677 3544C 1681 3547 1675 3550 1664 3549C 1653 3549 1650 3546 1658 3543z" stroke="none" fill="#000000" fill-rule="nonzero" />
        <path d="M2214 3518L2185 3485L2218 3514C 2248 3542 2255 3550 2247 3550C 2245 3550 2231 3535 2214 3518z" stroke="none" fill="#000000" fill-rule="nonzero" />
        <path d="M1635 3524C 1602 3517 1540 3511 1498 3510C 1456 3510 1419 3507 1417 3503C 1414 3498 1435 3496 1463 3497C 1510 3498 1511 3498 1480 3491C 1461 3486 1450 3482 1455 3481C 1461 3480 1485 3475 1510 3470C 1566 3460 1697 3481 1769 3513L1769 3513L1819 3535L1757 3536C 1723 3537 1668 3531 1635 3524zM1725 3520C 1698 3508 1682 3508 1700 3520C 1708 3525 1722 3529 1730 3529C 1740 3529 1738 3526 1725 3520zM1673 3503C 1666 3501 1654 3501 1648 3503C 1641 3506 1646 3508 1660 3508C 1674 3508 1679 3506 1673 3503zM1623 3493C 1616 3491 1604 3491 1598 3493C 1591 3496 1596 3498 1610 3498C 1624 3498 1629 3496 1623 3493zM1573 3483C 1566 3481 1552 3481 1543 3483C 1533 3486 1539 3488 1555 3488C 1572 3488 1579 3486 1573 3483z" stroke="none" fill="#000000" fill-rule="nonzero" />
        <path d="M1995 3530C 1992 3525 1994 3520 2000 3520C 2006 3520 2008 3514 2004 3508C 2000 3501 2001 3499 2005 3503C 2017 3513 2020 3540 2010 3540C 2005 3540 1998 3536 1995 3530z" stroke="none" fill="#000000" fill-rule="nonzero" />
        <path d="M1364 3519C 1361 3513 1365 3502 1374 3494C 1383 3486 1385 3485 1380 3492C 1360 3516 1372 3519 1478 3523L1478 3523L1585 3526L1478 3528C 1409 3529 1369 3526 1364 3519z" stroke="none" fill="#000000" fill-rule="nonzero" />
        <path d="M2392 3514C 2364 3495 2364 3478 2391 3482C 2417 3486 2451 3530 2428 3530C 2421 3530 2404 3523 2392 3514z" stroke="none" fill="#000000" fill-rule="nonzero" />
        <path d="M2514 3508L2495 3485L2518 3504C 2539 3522 2545 3530 2537 3530C 2535 3530 2525 3520 2514 3508z" stroke="none" fill="#000000" fill-rule="nonzero" />
        <path d="M1755 3489C 1733 3479 1717 3470 1720 3469C 1745 3464 1769 3465 1767 3471C 1766 3475 1774 3486 1785 3494C 1811 3514 1804 3513 1755 3489z" stroke="none" fill="#000000" fill-rule="nonzero" />
        <path d="M2527 3492C 2506 3469 2506 3460 2524 3460C 2532 3460 2542 3469 2545 3481C 2554 3509 2547 3514 2527 3492z" stroke="none" fill="#000000" fill-rule="nonzero" />
        <path d="M1658 3463C 1665 3460 1674 3461 1677 3464C 1681 3467 1675 3470 1664 3469C 1653 3469 1650 3466 1658 3463z" stroke="none" fill="#000000" fill-rule="nonzero" />
        <path d="M1644 3398L1625 3375L1648 3394C 1669 3412 1675 3420 1667 3420C 1665 3420 1655 3410 1644 3398z" stroke="none" fill="#000000" fill-rule="nonzero" />
        <path d="M1623 3347C 1573 3294 1521 3210 1539 3210C 1544 3210 1550 3216 1553 3224C 1556 3232 1569 3244 1580 3250C 1599 3260 1601 3260 1596 3242C 1592 3232 1594 3212 1599 3199C 1606 3180 1608 3185 1605 3222C 1603 3254 1607 3274 1617 3282C 1625 3288 1639 3311 1647 3332C 1655 3353 1666 3367 1671 3364C 1676 3361 1677 3367 1673 3376C 1668 3389 1670 3391 1680 3385C 1689 3380 1691 3381 1686 3388C 1682 3395 1677 3400 1676 3400C 1674 3400 1650 3376 1623 3347z" stroke="none" fill="#000000" fill-rule="nonzero" />
        <path d="M1837 3383C 1833 3380 1830 3367 1831 3356C 1831 3337 1832 3337 1841 3359C 1851 3383 1849 3395 1837 3383z" stroke="none" fill="#000000" fill-rule="nonzero" />
        <path d="M1172 3291C 1152 3279 1176 3244 1219 3224C 1256 3206 1304 3210 1361 3235L1361 3235L1395 3249L1360 3251C 1328 3252 1327 3253 1350 3259C 1374 3266 1374 3267 1340 3277C 1290 3293 1187 3302 1172 3291zM1231 3261C 1246 3255 1249 3251 1239 3251C 1230 3250 1214 3258 1203 3268C 1193 3277 1189 3282 1195 3278C 1201 3274 1217 3266 1231 3261zM1308 3243C 1298 3241 1282 3241 1273 3243C 1263 3246 1271 3248 1290 3248C 1309 3248 1317 3246 1308 3243z" stroke="none" fill="#000000" fill-rule="nonzero" />
        <path d="M1524 3268L1505 3245L1528 3264C 1549 3282 1555 3290 1547 3290C 1545 3290 1535 3280 1524 3268z" stroke="none" fill="#000000" fill-rule="nonzero" />
        <path d="M1671 3274C 1671 3263 1674 3260 1677 3268C 1680 3275 1679 3284 1676 3287C 1673 3291 1670 3285 1671 3274z" stroke="none" fill="#000000" fill-rule="nonzero" />
        <path d="M1398 3273C 1404 3271 1416 3271 1423 3273C 1429 3276 1424 3278 1410 3278C 1396 3278 1391 3276 1398 3273z" stroke="none" fill="#000000" fill-rule="nonzero" />
        <path d="M1701 3264C 1701 3253 1704 3250 1707 3258C 1710 3265 1709 3274 1706 3277C 1703 3281 1700 3275 1701 3264z" stroke="none" fill="#000000" fill-rule="nonzero" />
        <path d="M3486 3220C 3489 3206 3508 3153 3527 3102C 3546 3051 3558 3005 3554 2998C 3550 2992 3551 2990 3557 2993C 3562 2996 3574 2983 3583 2964C 3603 2923 3604 2916 3588 2926C 3581 2931 3580 2929 3584 2921C 3589 2914 3595 2911 3598 2915C 3601 2918 3619 2906 3638 2888C 3669 2858 3666 2867 3591 3015C 3546 3103 3510 3179 3510 3185C 3510 3190 3552 3113 3602 3013C 3653 2912 3698 2830 3702 2830C 3723 2830 3705 2902 3664 2989C 3591 3142 3589 3145 3543 3196C 3507 3236 3500 3241 3505 3220L3505 3220L3511 3195L3495 3220L3479 3245L3486 3220z" stroke="none" fill="#000000" fill-rule="nonzero" />
        <path d="M1258 3193C 1264 3191 1276 3191 1283 3193C 1289 3196 1284 3198 1270 3198C 1256 3198 1251 3196 1258 3193z" stroke="none" fill="#000000" fill-rule="nonzero" />
        <path d="M3560 3196C 3560 3194 3568 3186 3578 3179C 3593 3166 3594 3167 3581 3183C 3568 3199 3560 3204 3560 3196z" stroke="none" fill="#000000" fill-rule="nonzero" />
        <path d="M1198 3183C 1204 3181 1216 3181 1223 3183C 1229 3186 1224 3188 1210 3188C 1196 3188 1191 3186 1198 3183z" stroke="none" fill="#000000" fill-rule="nonzero" />
        <path d="M1694 3153C 1680 3079 1724 3011 1795 2996L1795 2996L1825 2989L1792 3016C 1763 3039 1724 3107 1734 3117C 1736 3119 1743 3106 1750 3088C 1766 3048 1789 3020 1805 3020C 1811 3020 1799 3056 1776 3101C 1737 3178 1735 3181 1729 3154L1729 3154L1722 3125L1721 3158C 1720 3202 1703 3199 1694 3153z" stroke="none" fill="#000000" fill-rule="nonzero" />
        <path d="M1451 3171C 1443 3166 1442 3160 1448 3156C 1453 3153 1460 3157 1464 3165C 1470 3182 1470 3183 1451 3171z" stroke="none" fill="#000000" fill-rule="nonzero" />
        <path d="M1194 3159C 1191 3154 1200 3150 1214 3150C 1245 3150 1248 3156 1220 3163C 1209 3166 1197 3164 1194 3159z" stroke="none" fill="#000000" fill-rule="nonzero" />
        <path d="M1587 3163C 1576 3153 1579 3120 1590 3120C 1596 3120 1600 3131 1600 3145C 1600 3171 1598 3174 1587 3163z" stroke="none" fill="#000000" fill-rule="nonzero" />
        <path d="M1043 3153C 1052 3151 1066 3151 1073 3153C 1079 3156 1072 3158 1055 3158C 1039 3158 1033 3156 1043 3153z" stroke="none" fill="#000000" fill-rule="nonzero" />
        <path d="M1385 3151C 1382 3146 1383 3139 1388 3136C 1393 3133 1397 3137 1397 3145C 1397 3162 1394 3164 1385 3151z" stroke="none" fill="#000000" fill-rule="nonzero" />
        <path d="M1090 3146C 1090 3144 1098 3136 1108 3129C 1123 3116 1124 3117 1111 3133C 1098 3149 1090 3154 1090 3146z" stroke="none" fill="#000000" fill-rule="nonzero" />
        <path d="M1303 3143C 1312 3141 1326 3141 1333 3143C 1339 3146 1332 3148 1315 3148C 1299 3148 1293 3146 1303 3143z" stroke="none" fill="#000000" fill-rule="nonzero" />
        <path d="M1560 3131C 1560 3120 1564 3109 1569 3106C 1573 3103 1575 3112 1572 3125C 1567 3155 1560 3158 1560 3131z" stroke="none" fill="#000000" fill-rule="nonzero" />
        <path d="M1036 3131C 1029 3121 1079 3106 1088 3115C 1095 3122 1070 3140 1053 3140C 1047 3140 1039 3136 1036 3131z" stroke="none" fill="#000000" fill-rule="nonzero" />
        <path d="M1203 3133C 1212 3131 1226 3131 1233 3133C 1239 3136 1232 3138 1215 3138C 1199 3138 1193 3136 1203 3133z" stroke="none" fill="#000000" fill-rule="nonzero" />
        <path d="M1512 3055C 1511 3005 1514 2960 1518 2955C 1522 2949 1523 2925 1519 2900C 1513 2857 1513 2856 1510 2890C 1508 2915 1505 2906 1498 2855C 1488 2780 1498 2722 1525 2700C 1538 2689 1540 2692 1541 2716C 1541 2741 1542 2742 1550 2725C 1557 2709 1559 2714 1559 2745C 1559 2812 1543 2922 1527 2960C 1523 2968 1519 3013 1517 3060L1517 3060L1514 3145L1512 3055zM1527 2818C 1524 2811 1522 2816 1522 2830C 1522 2844 1524 2849 1527 2843C 1529 2836 1529 2824 1527 2818zM1537 2763C 1534 2753 1532 2759 1532 2775C 1532 2792 1534 2799 1537 2793C 1539 2786 1539 2772 1537 2763z" stroke="none" fill="#000000" fill-rule="nonzero" />
        <path d="M1446 3112C 1443 3107 1447 3103 1455 3103C 1463 3103 1467 3107 1464 3112C 1461 3116 1457 3120 1455 3120C 1453 3120 1449 3116 1446 3112z" stroke="none" fill="#000000" fill-rule="nonzero" />
        <path d="M1218 3093C 1225 3090 1234 3091 1237 3094C 1241 3097 1235 3100 1224 3099C 1213 3099 1210 3096 1218 3093z" stroke="none" fill="#000000" fill-rule="nonzero" />
        <path d="M1239 3053C 1226 3037 1227 3036 1243 3049C 1252 3056 1260 3064 1260 3066C 1260 3074 1252 3069 1239 3053z" stroke="none" fill="#000000" fill-rule="nonzero" />
        <path d="M1197 3049C 1204 3042 1212 3039 1215 3042C 1218 3045 1213 3051 1203 3054C 1189 3060 1188 3059 1197 3049z" stroke="none" fill="#000000" fill-rule="nonzero" />
        <path d="M1409 3033C 1396 3017 1397 3016 1413 3029C 1422 3036 1430 3044 1430 3046C 1430 3054 1422 3049 1409 3033z" stroke="none" fill="#000000" fill-rule="nonzero" />
        <path d="M1127 3019C 1134 3012 1142 3009 1145 3012C 1148 3015 1143 3021 1133 3024C 1119 3030 1118 3029 1127 3019z" stroke="none" fill="#000000" fill-rule="nonzero" />
        <path d="M1196 3022C 1193 3017 1197 3013 1205 3013C 1213 3013 1217 3017 1214 3022C 1211 3026 1207 3030 1205 3030C 1203 3030 1199 3026 1196 3022z" stroke="none" fill="#000000" fill-rule="nonzero" />
        <path d="M1700 3026C 1700 3024 1708 3016 1718 3009C 1733 2996 1734 2997 1721 3013C 1708 3029 1700 3034 1700 3026z" stroke="none" fill="#000000" fill-rule="nonzero" />
        <path d="M1088 3013C 1098 3009 1097 3003 1083 2987L1083 2987L1065 2966L1091 2986C 1116 3004 1113 3021 1085 3019C 1080 3019 1081 3016 1088 3013z" stroke="none" fill="#000000" fill-rule="nonzero" />
        <path d="M1017 2993C 1004 2981 1010 2970 1029 2970C 1039 2970 1053 2977 1060 2985C 1070 2998 1069 3000 1048 3000C 1034 3000 1020 2997 1017 2993z" stroke="none" fill="#000000" fill-rule="nonzero" />
        <path d="M1201 2984C 1201 2973 1204 2970 1207 2978C 1210 2985 1209 2994 1206 2997C 1203 3001 1200 2995 1201 2984z" stroke="none" fill="#000000" fill-rule="nonzero" />
        <path d="M1160 2961C 1147 2936 1147 2927 1160 2935C 1176 2945 1192 2980 1181 2980C 1175 2980 1166 2971 1160 2961z" stroke="none" fill="#000000" fill-rule="nonzero" />
        <path d="M1315 2960C 1304 2948 1295 2932 1294 2924C 1292 2910 1294 2911 1310 2925C 1332 2945 1343 2932 1335 2893C 1330 2866 1330 2866 1340 2889C 1351 2915 1345 2950 1328 2950C 1322 2950 1322 2956 1330 2965C 1349 2988 1336 2983 1315 2960z" stroke="none" fill="#000000" fill-rule="nonzero" />
        <path d="M1137 2919C 1144 2912 1152 2909 1155 2912C 1158 2915 1153 2921 1143 2924C 1129 2930 1128 2929 1137 2919z" stroke="none" fill="#000000" fill-rule="nonzero" />
        <path d="M3412 2902C 3404 2896 3419 2886 3456 2870C 3487 2858 3534 2832 3561 2814C 3627 2770 3626 2795 3560 2860C 3516 2905 3506 2910 3468 2910C 3444 2910 3419 2906 3412 2902z" stroke="none" fill="#000000" fill-rule="nonzero" />
        <path d="M3723 2865C 3723 2843 3725 2835 3727 2848C 3729 2860 3729 2878 3727 2888C 3724 2897 3722 2887 3723 2865z" stroke="none" fill="#000000" fill-rule="nonzero" />
        <path d="M1167 2831C 1138 2804 1111 2782 1107 2782C 1102 2782 1095 2778 1092 2774C 1088 2770 1091 2770 1098 2774C 1116 2785 1113 2773 1088 2740C 1058 2699 1073 2690 1113 2726C 1144 2754 1144 2754 1121 2728C 1084 2685 1115 2695 1165 2741C 1189 2763 1212 2781 1217 2782C 1221 2782 1227 2784 1230 2787C 1233 2791 1229 2790 1223 2786C 1204 2775 1207 2787 1231 2820C 1252 2848 1251 2880 1230 2880C 1224 2880 1195 2858 1167 2831zM1222 2843C 1211 2827 1187 2802 1169 2785C 1149 2767 1156 2778 1186 2812C 1239 2874 1253 2886 1222 2843z" stroke="none" fill="#000000" fill-rule="nonzero" />
        <path d="M3383 2868C 3383 2860 3390 2854 3399 2853C 3408 2853 3453 2836 3500 2816C 3546 2796 3587 2780 3590 2780C 3601 2781 3553 2813 3500 2840C 3431 2875 3383 2886 3383 2868z" stroke="none" fill="#000000" fill-rule="nonzero" />
        <path d="M1144 2838L1125 2815L1148 2834C 1160 2845 1170 2855 1170 2857C 1170 2865 1162 2859 1144 2838z" stroke="none" fill="#000000" fill-rule="nonzero" />
        <path d="M3881 2779C 3859 2763 3838 2740 3835 2728C 3810 2621 3811 2552 3837 2621L3837 2621L3850 2655L3844 2622C 3839 2591 3840 2589 3857 2598C 3899 2621 3942 2698 3953 2770C 3960 2817 3936 2820 3881 2779zM3919 2763C 3880 2700 3850 2657 3850 2665C 3850 2674 3931 2800 3937 2800C 3940 2800 3931 2783 3919 2763z" stroke="none" fill="#000000" fill-rule="nonzero" />
        <path d="M1572 2750C 1572 2731 1574 2723 1577 2733C 1579 2742 1579 2758 1577 2768C 1574 2777 1572 2769 1572 2750z" stroke="none" fill="#000000" fill-rule="nonzero" />
        <path d="M3638 2729C 3661 2702 3700 2691 3678 2717C 3672 2724 3665 2728 3662 2725C 3659 2722 3647 2728 3636 2737C 3618 2752 3618 2751 3638 2729z" stroke="none" fill="#000000" fill-rule="nonzero" />
        <path d="M1169 2723C 1156 2707 1157 2706 1173 2719C 1182 2726 1190 2734 1190 2736C 1190 2744 1182 2739 1169 2723z" stroke="none" fill="#000000" fill-rule="nonzero" />
        <path d="M1331 2731C 1324 2726 1319 2717 1321 2711C 1323 2705 1331 2709 1338 2720C 1352 2742 1351 2743 1331 2731z" stroke="none" fill="#000000" fill-rule="nonzero" />
        <path d="M1053 2696C 1054 2685 1062 2675 1070 2673C 1080 2670 1081 2671 1074 2677C 1068 2681 1060 2692 1057 2700C 1052 2711 1051 2709 1053 2696z" stroke="none" fill="#000000" fill-rule="nonzero" />
        <path d="M3581 2654C 3581 2643 3584 2640 3587 2648C 3590 2655 3589 2664 3586 2667C 3583 2671 3580 2665 3581 2654z" stroke="none" fill="#000000" fill-rule="nonzero" />
        <path d="M3600 2658C 3600 2649 3609 2632 3621 2619L3621 2619L3641 2595L3634 2620C 3631 2634 3622 2652 3614 2660C 3602 2672 3600 2672 3600 2658z" stroke="none" fill="#000000" fill-rule="nonzero" />
        <path d="M3889 2603C 3876 2587 3877 2586 3893 2599C 3909 2612 3914 2620 3906 2620C 3904 2620 3896 2612 3889 2603z" stroke="none" fill="#000000" fill-rule="nonzero" />
        <path d="M1267 2594C 1272 2581 1270 2579 1260 2585C 1251 2590 1249 2589 1254 2582C 1258 2575 1265 2570 1271 2570C 1283 2570 1283 2597 1270 2605C 1264 2609 1263 2604 1267 2594z" stroke="none" fill="#000000" fill-rule="nonzero" />
        <path d="M3620 2585C 3633 2571 3646 2560 3648 2560C 3651 2560 3643 2571 3630 2585C 3617 2599 3604 2610 3602 2610C 3599 2610 3607 2599 3620 2585z" stroke="none" fill="#000000" fill-rule="nonzero" />
        <path d="M3651 2594C 3651 2583 3654 2580 3657 2588C 3660 2595 3659 2604 3656 2607C 3653 2611 3650 2605 3651 2594z" stroke="none" fill="#000000" fill-rule="nonzero" />
        <path d="M3430 2583C 3394 2576 3380 2560 3411 2560C 3425 2560 3451 2549 3470 2535C 3489 2521 3510 2510 3518 2510C 3525 2510 3545 2497 3561 2481C 3595 2446 3596 2448 3570 2500C 3551 2537 3487 2592 3465 2589C 3460 2588 3444 2585 3430 2583z" stroke="none" fill="#000000" fill-rule="nonzero" />
        <path d="M3540 2566C 3540 2564 3548 2556 3558 2549C 3573 2536 3574 2537 3561 2553C 3548 2569 3540 2574 3540 2566z" stroke="none" fill="#000000" fill-rule="nonzero" />
        <path d="M3655 2549C 3651 2543 3650 2537 3653 2534C 3655 2531 3660 2536 3663 2545C 3670 2562 3664 2565 3655 2549z" stroke="none" fill="#000000" fill-rule="nonzero" />
        <path d="M1410 2544C 1410 2521 1458 2455 1489 2434C 1520 2414 1535 2410 1564 2415C 1606 2423 1622 2440 1588 2440C 1575 2440 1549 2451 1530 2465C 1511 2479 1500 2490 1504 2490C 1508 2490 1523 2481 1537 2470C 1551 2459 1572 2450 1584 2450C 1600 2451 1596 2455 1567 2471C 1546 2482 1532 2495 1534 2499C 1537 2504 1530 2516 1517 2526L1517 2526L1495 2545L1514 2523C 1525 2510 1529 2500 1523 2500C 1511 2500 1478 2535 1484 2541C 1486 2543 1476 2545 1460 2545C 1427 2545 1431 2526 1469 2505C 1483 2497 1489 2491 1482 2490C 1474 2490 1455 2503 1439 2519C 1423 2535 1410 2546 1410 2544z" stroke="none" fill="#000000" fill-rule="nonzero" />
        <path d="M3440 2524C 3465 2510 3494 2490 3505 2480C 3516 2470 3536 2459 3549 2455C 3587 2443 3570 2472 3524 2495C 3502 2506 3473 2523 3460 2533C 3446 2542 3426 2550 3415 2550C 3401 2550 3409 2542 3440 2524z" stroke="none" fill="#000000" fill-rule="nonzero" />
        <path d="M3606 2537C 3609 2527 3615 2522 3618 2525C 3621 2528 3618 2536 3611 2543C 3601 2552 3600 2551 3606 2537z" stroke="none" fill="#000000" fill-rule="nonzero" />
        <path d="M2630 2531C 2630 2524 2625 2522 2618 2526C 2611 2530 2608 2529 2613 2525C 2617 2520 2610 2505 2598 2491C 2585 2476 2590 2478 2610 2497C 2629 2515 2641 2533 2637 2536C 2633 2540 2630 2538 2630 2531z" stroke="none" fill="#000000" fill-rule="nonzero" />
        <path d="M3636 2503C 3630 2489 3631 2488 3641 2497C 3648 2504 3651 2512 3648 2515C 3645 2518 3639 2513 3636 2503z" stroke="none" fill="#000000" fill-rule="nonzero" />
        <path d="M1321 2494C 1321 2483 1324 2480 1327 2488C 1330 2495 1329 2504 1326 2507C 1323 2511 1320 2505 1321 2494z" stroke="none" fill="#000000" fill-rule="nonzero" />
        <path d="M3711 2484C 3711 2473 3714 2470 3717 2478C 3720 2485 3719 2494 3716 2497C 3713 2501 3710 2495 3711 2484z" stroke="none" fill="#000000" fill-rule="nonzero" />
        <path d="M3731 2484C 3731 2473 3734 2470 3737 2478C 3740 2485 3739 2494 3736 2497C 3733 2501 3730 2495 3731 2484z" stroke="none" fill="#000000" fill-rule="nonzero" />
        <path d="M1570 2486C 1570 2484 1577 2479 1586 2476C 1594 2473 1598 2474 1595 2480C 1589 2490 1570 2494 1570 2486z" stroke="none" fill="#000000" fill-rule="nonzero" />
        <path d="M2121 2474C 2121 2463 2124 2460 2127 2468C 2130 2475 2129 2484 2126 2487C 2123 2491 2120 2485 2121 2474z" stroke="none" fill="#000000" fill-rule="nonzero" />
        <path d="M3470 2486C 3470 2484 3478 2476 3488 2469C 3503 2456 3504 2457 3491 2473C 3478 2489 3470 2494 3470 2486z" stroke="none" fill="#000000" fill-rule="nonzero" />
        <path d="M1380 2471C 1380 2465 1384 2458 1390 2455C 1396 2452 1397 2456 1394 2464C 1387 2482 1380 2485 1380 2471z" stroke="none" fill="#000000" fill-rule="nonzero" />
        <path d="M1411 2444C 1411 2433 1414 2430 1417 2438C 1420 2445 1419 2454 1416 2457C 1413 2461 1410 2455 1411 2444z" stroke="none" fill="#000000" fill-rule="nonzero" />
        <path d="M1350 2436C 1350 2434 1358 2426 1368 2419C 1383 2406 1384 2407 1371 2423C 1358 2439 1350 2444 1350 2436z" stroke="none" fill="#000000" fill-rule="nonzero" />
        <path d="M1618 2413C 1625 2410 1634 2411 1637 2414C 1641 2417 1635 2420 1624 2419C 1613 2419 1610 2416 1618 2413z" stroke="none" fill="#000000" fill-rule="nonzero" />
        <path d="M3671 2404C 3671 2393 3674 2390 3677 2398C 3680 2405 3679 2414 3676 2417C 3673 2421 3670 2415 3671 2404z" stroke="none" fill="#000000" fill-rule="nonzero" />
        <path d="M1133 2395C 1098 2371 1061 2299 1054 2244C 1049 2204 1050 2197 1060 2207C 1076 2222 1113 2281 1140 2335C 1151 2357 1160 2368 1160 2359C 1160 2351 1147 2324 1132 2299C 1117 2275 1093 2237 1080 2215L1080 2215L1055 2175L1085 2194C 1157 2239 1172 2266 1184 2365C 1190 2410 1189 2413 1176 2397C 1164 2381 1161 2381 1158 2395C 1155 2409 1153 2409 1133 2395z" stroke="none" fill="#000000" fill-rule="nonzero" />
        <path d="M1365 2378C 1373 2351 1400 2320 1400 2337C 1400 2356 1378 2400 1368 2400C 1363 2400 1362 2390 1365 2378z" stroke="none" fill="#000000" fill-rule="nonzero" />
        <path d="M2101 2364C 2101 2353 2104 2350 2107 2358C 2110 2365 2109 2374 2106 2377C 2103 2381 2100 2375 2101 2364z" stroke="none" fill="#000000" fill-rule="nonzero" />
        <path d="M2125 2354C 2111 2339 2104 2317 2102 2276C 2101 2242 2091 2202 2079 2177C 2059 2139 2057 2137 2044 2155C 2036 2165 2030 2192 2030 2214L2030 2214L2030 2255L2002 2226L1975 2196L1998 2147C 2030 2081 2025 2078 1940 2114C 1930 2118 1919 2110 1907 2088C 1895 2068 1894 2061 1903 2068C 1915 2078 1916 2072 1912 2028C 1905 1948 1853 1840 1822 1840C 1815 1840 1804 1829 1798 1815C 1792 1801 1783 1790 1778 1790C 1773 1790 1772 1785 1775 1780C 1778 1774 1775 1768 1768 1765C 1760 1762 1754 1751 1753 1740C 1752 1724 1761 1729 1796 1764C 1835 1804 1904 1840 1916 1827C 1921 1823 1886 1787 1845 1754C 1834 1746 1831 1742 1839 1746C 1850 1751 1852 1749 1846 1735C 1833 1700 1945 1807 1978 1861C 2008 1910 2023 1923 2000 1879C 1980 1842 1999 1861 2056 1933C 2122 2017 2211 2193 2218 2255C 2222 2295 2219 2302 2183 2337L2183 2337L2144 2375L2125 2354zM2057 2068C 2055 2055 2053 2065 2053 2090C 2053 2115 2055 2125 2057 2113C 2059 2100 2059 2080 2057 2068zM2001 2012C 2006 1999 2010 1977 2010 1962C 2010 1941 2012 1938 2020 1950C 2031 1967 2033 1960 2024 1936C 2011 1901 1929 2037 1930 2091C 1931 2108 1988 2044 2001 2012zM2050 2019C 2050 2008 2046 2002 2040 2005C 2035 2008 2030 2018 2030 2026C 2030 2034 2035 2040 2040 2040C 2046 2040 2050 2031 2050 2019z" stroke="none" fill="#000000" fill-rule="nonzero" />
        <path d="M3937 2309C 3941 2296 3945 2291 3948 2299C 3950 2306 3947 2317 3942 2322C 3934 2330 3933 2326 3937 2309z" stroke="none" fill="#000000" fill-rule="nonzero" />
        <path d="M3459 2283C 3459 2258 3458 2257 3450 2275C 3444 2287 3443 2257 3447 2195C 3450 2140 3456 2088 3461 2079C 3466 2070 3466 2059 3462 2055C 3458 2050 3461 2050 3468 2054C 3474 2058 3481 2080 3481 2103L3481 2103L3483 2145L3489 2110L3496 2075L3503 2115C 3514 2181 3511 2237 3493 2275C 3473 2317 3460 2320 3459 2283zM3467 2218C 3464 2211 3462 2216 3462 2230C 3462 2244 3464 2249 3467 2243C 3469 2236 3469 2224 3467 2218zM3477 2163C 3474 2153 3472 2159 3472 2175C 3472 2192 3474 2199 3477 2193C 3479 2186 3479 2172 3477 2163z" stroke="none" fill="#000000" fill-rule="nonzero" />
        <path d="M3875 2299C 3881 2290 3878 2289 3864 2294C 3854 2298 3849 2298 3852 2294C 3856 2291 3834 2258 3804 2222C 3749 2155 3744 2145 3758 2122C 3765 2112 3772 2114 3792 2130C 3822 2153 3835 2156 3824 2138C 3820 2131 3831 2138 3848 2154C 3880 2184 3889 2197 3870 2185C 3865 2182 3860 2183 3860 2188C 3860 2200 3893 2229 3904 2227C 3909 2226 3914 2234 3915 2245C 3917 2256 3921 2274 3925 2284C 3931 2298 3930 2301 3922 2296C 3916 2292 3901 2294 3889 2301C 3872 2310 3869 2309 3875 2299zM3835 2208C 3773 2140 3750 2118 3775 2150C 3800 2183 3873 2260 3878 2260C 3881 2260 3861 2236 3835 2208zM3860 2176C 3860 2174 3852 2166 3843 2159C 3827 2146 3826 2147 3839 2163C 3852 2179 3860 2184 3860 2176z" stroke="none" fill="#000000" fill-rule="nonzero" />
        <path d="M1327 2278C 1336 2268 1345 2262 1348 2265C 1351 2268 1363 2262 1374 2253C 1386 2243 1383 2249 1367 2266C 1352 2283 1333 2297 1325 2297C 1312 2297 1313 2294 1327 2278z" stroke="none" fill="#000000" fill-rule="nonzero" />
        <path d="M3666 2277C 3669 2267 3675 2262 3678 2265C 3681 2268 3678 2276 3671 2283C 3661 2292 3660 2291 3666 2277z" stroke="none" fill="#000000" fill-rule="nonzero" />
        <path d="M3422 2250C 3422 2236 3424 2231 3427 2238C 3429 2244 3429 2256 3427 2263C 3424 2269 3422 2264 3422 2250z" stroke="none" fill="#000000" fill-rule="nonzero" />
        <path d="M3522 2210C 3522 2191 3524 2183 3527 2193C 3529 2202 3529 2218 3527 2228C 3524 2237 3522 2229 3522 2210z" stroke="none" fill="#000000" fill-rule="nonzero" />
        <path d="M1390 2215C 1390 2200 1420 2153 1444 2131C 1458 2118 1467 2104 1465 2099C 1462 2095 1465 2088 1471 2084C 1479 2080 1480 2081 1476 2088C 1467 2103 1471 2103 1505 2090C 1524 2083 1544 2083 1572 2092L1572 2092L1611 2104L1583 2116L1555 2129L1590 2123L1625 2118L1601 2135C 1571 2157 1420 2221 1420 2211C 1420 2207 1438 2194 1460 2181C 1482 2169 1500 2157 1500 2154C 1500 2147 1459 2169 1423 2197C 1405 2210 1390 2218 1390 2215zM1540 2140C 1548 2135 1551 2130 1545 2130C 1540 2130 1528 2135 1520 2140C 1512 2145 1510 2150 1515 2150C 1521 2150 1532 2145 1540 2140z" stroke="none" fill="#000000" fill-rule="nonzero" />
        <path d="M1294 2155C 1286 2122 1296 2083 1324 2040C 1337 2021 1351 1994 1355 1980C 1381 1897 1486 1747 1501 1772C 1508 1783 1510 1782 1510 1771C 1510 1763 1512 1759 1515 1762C 1522 1768 1469 1921 1431 2005C 1413 2044 1385 2089 1368 2107C 1349 2127 1341 2143 1345 2152C 1351 2162 1350 2162 1341 2154C 1329 2143 1331 2137 1443 1923C 1453 1903 1459 1886 1457 1884C 1455 1882 1419 1948 1377 2030C 1312 2159 1300 2177 1294 2155zM1499 1795C 1499 1790 1491 1801 1480 1820C 1469 1839 1461 1860 1461 1865C 1461 1871 1469 1859 1480 1840C 1491 1821 1499 1801 1499 1795z" stroke="none" fill="#000000" fill-rule="nonzero" />
        <path d="M2265 2152C 2249 2141 2222 2119 2206 2102C 2190 2085 2172 2074 2167 2077C 2161 2081 2159 2077 2163 2067C 2166 2058 2165 2048 2160 2045C 2154 2042 2146 2031 2141 2022C 2134 2009 2148 2012 2198 2037C 2260 2066 2312 2076 2380 2071C 2415 2068 2253 2003 2171 1987C 2117 1977 2104 1970 2078 1938C 2062 1917 2050 1900 2052 1900C 2054 1900 2074 1909 2096 1919C 2173 1956 2255 1973 2307 1963L2307 1963L2355 1954L2265 1926C 2216 1910 2144 1893 2105 1887C 2037 1877 2033 1875 1968 1812C 1931 1776 1903 1743 1905 1739C 1908 1735 1898 1727 1882 1722C 1847 1708 1803 1673 1812 1665C 1815 1661 1829 1664 1842 1671C 1854 1678 1869 1683 1874 1682C 1879 1680 1886 1683 1889 1688C 1892 1692 1915 1704 1939 1714C 1974 1727 1981 1728 1972 1717C 1965 1709 1945 1699 1927 1696L1927 1696L1895 1689L1930 1670C 1981 1643 2034 1636 2093 1651L2093 1651L2145 1663L2075 1681C 2037 1691 2001 1699 1995 1700C 1990 1700 1994 1706 2005 1712C 2028 1725 2182 1729 2225 1717C 2241 1712 2252 1712 2247 1716C 2243 1720 2246 1730 2254 1739C 2267 1754 2260 1755 2179 1751C 2130 1750 2082 1751 2072 1755C 2032 1770 2152 1804 2275 1812C 2313 1815 2317 1818 2347 1875C 2380 1935 2433 2064 2445 2110C 2451 2134 2448 2136 2393 2147C 2361 2154 2326 2162 2315 2165C 2304 2168 2282 2162 2265 2152zM2135 1844C 2109 1823 1979 1760 1963 1760C 1915 1760 2018 1837 2083 1849C 2149 1863 2158 1862 2135 1844z" stroke="none" fill="#000000" fill-rule="nonzero" />
        <path d="M1271 2134C 1271 2123 1274 2120 1277 2128C 1280 2135 1279 2144 1276 2147C 1273 2151 1270 2145 1271 2134z" stroke="none" fill="#000000" fill-rule="nonzero" />
        <path d="M3731 2134C 3731 2123 3734 2120 3737 2128C 3740 2135 3739 2144 3736 2147C 3733 2151 3730 2145 3731 2134z" stroke="none" fill="#000000" fill-rule="nonzero" />
        <path d="M3431 2114C 3431 2103 3434 2100 3437 2108C 3440 2115 3439 2124 3436 2127C 3433 2131 3430 2125 3431 2114z" stroke="none" fill="#000000" fill-rule="nonzero" />
        <path d="M3670 2060C 3662 2055 3659 2048 3663 2044C 3667 2040 3664 2030 3658 2021C 3648 2009 3651 2009 3666 2023C 3677 2032 3687 2047 3687 2055C 3687 2063 3686 2070 3686 2070C 3685 2070 3678 2066 3670 2060z" stroke="none" fill="#000000" fill-rule="nonzero" />
        <path d="M3820 2040C 3813 2027 3813 2020 3819 2020C 3825 2020 3834 2029 3840 2040C 3847 2053 3847 2060 3841 2060C 3835 2060 3826 2051 3820 2040z" stroke="none" fill="#000000" fill-rule="nonzero" />
        <path d="M3968 2043C 3974 2041 3986 2041 3993 2043C 3999 2046 3994 2048 3980 2048C 3966 2048 3961 2046 3968 2043z" stroke="none" fill="#000000" fill-rule="nonzero" />
        <path d="M3148 2033C 3155 2030 3164 2031 3167 2034C 3171 2037 3165 2040 3154 2039C 3143 2039 3140 2036 3148 2033z" stroke="none" fill="#000000" fill-rule="nonzero" />
        <path d="M3944 2015C 3926 2000 3926 2000 3954 2002C 3970 2004 3985 2011 3988 2018C 3993 2035 3968 2033 3944 2015z" stroke="none" fill="#000000" fill-rule="nonzero" />
        <path d="M3189 1996C 3195 1989 3197 1981 3194 1978C 3191 1975 3207 1937 3229 1894C 3264 1825 3269 1819 3270 1845C 3272 1877 3274 1874 3285 1825C 3292 1798 3293 1797 3300 1815C 3305 1826 3309 1853 3309 1876C 3310 1935 3277 1981 3221 1997C 3186 2007 3180 2007 3189 1996zM3257 1921C 3265 1903 3269 1886 3267 1883C 3264 1881 3257 1894 3251 1911C 3245 1929 3232 1953 3222 1964C 3206 1984 3206 1984 3224 1970C 3235 1962 3249 1940 3257 1921z" stroke="none" fill="#000000" fill-rule="nonzero" />
        <path d="M3270 1996C 3270 1994 3278 1986 3288 1979C 3303 1966 3304 1967 3291 1983C 3278 1999 3270 2004 3270 1996z" stroke="none" fill="#000000" fill-rule="nonzero" />
        <path d="M3481 1954C 3481 1943 3484 1940 3487 1948C 3490 1955 3489 1964 3486 1967C 3483 1971 3480 1965 3481 1954z" stroke="none" fill="#000000" fill-rule="nonzero" />
        <path d="M3749 1942L3725 1915L3750 1936C 3764 1948 3781 1955 3788 1953C 3794 1950 3800 1950 3800 1953C 3800 1971 3768 1964 3749 1942z" stroke="none" fill="#000000" fill-rule="nonzero" />
        <path d="M3788 1903C 3800 1901 3820 1901 3833 1903C 3845 1905 3835 1907 3810 1907C 3785 1907 3775 1905 3788 1903z" stroke="none" fill="#000000" fill-rule="nonzero" />
        <path d="M3667 1889C 3674 1882 3682 1879 3685 1882C 3688 1885 3683 1891 3673 1894C 3659 1900 3658 1899 3667 1889z" stroke="none" fill="#000000" fill-rule="nonzero" />
        <path d="M3408 1874C 3403 1870 3400 1858 3400 1846C 3400 1832 3403 1829 3411 1837C 3417 1843 3420 1856 3418 1865C 3417 1874 3412 1878 3408 1874z" stroke="none" fill="#000000" fill-rule="nonzero" />
        <path d="M3482 1860C 3482 1846 3484 1841 3487 1848C 3489 1854 3489 1866 3487 1873C 3484 1879 3482 1874 3482 1860z" stroke="none" fill="#000000" fill-rule="nonzero" />
        <path d="M3880 1876C 3880 1874 3888 1866 3898 1859C 3913 1846 3914 1847 3901 1863C 3888 1879 3880 1884 3880 1876z" stroke="none" fill="#000000" fill-rule="nonzero" />
        <path d="M3920 1870C 3940 1857 3970 1857 3970 1870C 3970 1876 3955 1880 3938 1880C 3913 1880 3909 1877 3920 1870z" stroke="none" fill="#000000" fill-rule="nonzero" />
        <path d="M3382 1850C 3382 1836 3384 1831 3387 1838C 3389 1844 3389 1856 3387 1863C 3384 1869 3382 1864 3382 1850z" stroke="none" fill="#000000" fill-rule="nonzero" />
        <path d="M3603 1855C 3603 1847 3610 1838 3618 1835C 3639 1827 3640 1832 3620 1852C 3607 1866 3603 1867 3603 1855z" stroke="none" fill="#000000" fill-rule="nonzero" />
        <path d="M3778 1863C 3784 1861 3796 1861 3803 1863C 3809 1866 3804 1868 3790 1868C 3776 1868 3771 1866 3778 1863z" stroke="none" fill="#000000" fill-rule="nonzero" />
        <path d="M3673 1853C 3682 1851 3696 1851 3703 1853C 3709 1856 3702 1858 3685 1858C 3669 1858 3663 1856 3673 1853z" stroke="none" fill="#000000" fill-rule="nonzero" />
        <path d="M3775 1840C 3778 1835 3788 1830 3796 1830C 3804 1830 3810 1835 3810 1840C 3810 1846 3801 1850 3789 1850C 3778 1850 3772 1846 3775 1840z" stroke="none" fill="#000000" fill-rule="nonzero" />
        <path d="M3530 1826C 3530 1824 3537 1819 3546 1816C 3554 1813 3558 1814 3555 1820C 3549 1830 3530 1834 3530 1826z" stroke="none" fill="#000000" fill-rule="nonzero" />
        <path d="M1420 1816C 1420 1814 1428 1806 1438 1799C 1453 1786 1454 1787 1441 1803C 1428 1819 1420 1824 1420 1816z" stroke="none" fill="#000000" fill-rule="nonzero" />
        <path d="M2368 1813C 2374 1811 2377 1803 2374 1798C 2370 1791 2372 1790 2378 1794C 2396 1805 2392 1820 2373 1819C 2362 1819 2360 1816 2368 1813z" stroke="none" fill="#000000" fill-rule="nonzero" />
        <path d="M3778 1813C 3784 1811 3796 1811 3803 1813C 3809 1816 3804 1818 3790 1818C 3776 1818 3771 1816 3778 1813z" stroke="none" fill="#000000" fill-rule="nonzero" />
        <path d="M3305 1791C 3302 1783 3295 1735 3290 1686C 3286 1636 3279 1587 3275 1578C 3263 1547 3279 1559 3306 1600C 3331 1637 3332 1646 3327 1713C 3323 1758 3325 1791 3331 1797C 3337 1803 3336 1807 3326 1807C 3318 1807 3308 1800 3305 1791z" stroke="none" fill="#000000" fill-rule="nonzero" />
        <path d="M3410 1799C 3410 1794 3406 1791 3401 1794C 3396 1798 3394 1790 3398 1778C 3401 1764 3399 1759 3392 1764C 3384 1769 3382 1765 3386 1755C 3390 1746 3396 1742 3401 1747C 3411 1758 3424 1810 3416 1810C 3413 1810 3410 1805 3410 1799z" stroke="none" fill="#000000" fill-rule="nonzero" />
        <path d="M3728 1803C 3735 1800 3744 1801 3747 1804C 3751 1807 3745 1810 3734 1809C 3723 1809 3720 1806 3728 1803z" stroke="none" fill="#000000" fill-rule="nonzero" />
        <path d="M3677 1776C 3614 1759 3598 1743 3648 1747C 3682 1749 3683 1748 3655 1742L3655 1742L3625 1734L3665 1720C 3687 1713 3733 1704 3769 1700L3769 1700L3833 1694L3804 1717C 3771 1743 3779 1748 3815 1724C 3831 1713 3840 1712 3840 1719C 3840 1737 3790 1780 3769 1780C 3760 1780 3746 1782 3738 1784C 3731 1787 3703 1783 3677 1776zM3767 1744C 3764 1741 3755 1740 3748 1743C 3740 1746 3743 1749 3754 1749C 3765 1750 3771 1747 3767 1744z" stroke="none" fill="#000000" fill-rule="nonzero" />
        <path d="M3408 1739L3360 1698L3351 1721L3341 1745L3341 1723C 3340 1710 3345 1700 3350 1700C 3365 1700 3362 1678 3341 1637C 3331 1617 3327 1600 3332 1600C 3338 1600 3336 1592 3329 1583C 3316 1567 3317 1566 3333 1579C 3342 1587 3348 1595 3346 1598C 3343 1600 3363 1629 3391 1662C 3441 1723 3477 1780 3463 1780C 3458 1779 3434 1761 3408 1739z" stroke="none" fill="#000000" fill-rule="nonzero" />
        <path d="M3484 1748L3465 1725L3488 1744C 3509 1762 3515 1770 3507 1770C 3505 1770 3495 1760 3484 1748z" stroke="none" fill="#000000" fill-rule="nonzero" />
        <path d="M1733 1730C 1735 1722 1733 1707 1728 1698C 1722 1686 1723 1680 1730 1680C 1747 1680 1753 1707 1740 1727C 1733 1738 1730 1739 1733 1730z" stroke="none" fill="#000000" fill-rule="nonzero" />
        <path d="M3578 1723C 3585 1720 3594 1721 3597 1724C 3601 1727 3595 1730 3584 1729C 3573 1729 3570 1726 3578 1723z" stroke="none" fill="#000000" fill-rule="nonzero" />
        <path d="M3435 1690C 3432 1684 3436 1683 3444 1686C 3462 1693 3465 1700 3451 1700C 3445 1700 3438 1696 3435 1690z" stroke="none" fill="#000000" fill-rule="nonzero" />
        <path d="M3192 1670C 3192 1656 3194 1651 3197 1658C 3199 1664 3199 1676 3197 1683C 3194 1689 3192 1684 3192 1670z" stroke="none" fill="#000000" fill-rule="nonzero" />
        <path d="M2188 1673C 2195 1670 2204 1671 2207 1674C 2211 1677 2205 1680 2194 1679C 2183 1679 2180 1676 2188 1673z" stroke="none" fill="#000000" fill-rule="nonzero" />
        <path d="M3165 1656C 3162 1647 3158 1633 3155 1625C 3153 1617 3153 1610 3156 1610C 3163 1610 3181 1662 3176 1668C 3173 1671 3168 1665 3165 1656z" stroke="none" fill="#000000" fill-rule="nonzero" />
        <path d="M1808 1603C 1815 1600 1824 1601 1827 1604C 1831 1607 1825 1610 1814 1609C 1803 1609 1800 1606 1808 1603z" stroke="none" fill="#000000" fill-rule="nonzero" />
        <path d="M3092 1559C 3068 1532 3043 1510 3037 1510C 3031 1510 3046 1531 3070 1558L3070 1558L3115 1605L3068 1561C 3042 1536 3023 1514 3025 1511C 3028 1509 3023 1498 3013 1488C 2982 1453 3016 1470 3070 1517C 3102 1544 3113 1551 3096 1532C 3064 1498 2937 1405 2959 1433C 2967 1443 2968 1450 2962 1450C 2956 1450 2948 1446 2945 1440C 2942 1435 2934 1430 2929 1430C 2923 1430 2922 1435 2926 1442C 2931 1449 2929 1450 2921 1446C 2914 1441 2911 1435 2914 1432C 2917 1429 2912 1418 2903 1408C 2868 1369 2880 1359 2928 1387C 3047 1455 3139 1537 3124 1562C 3121 1567 3124 1578 3131 1586C 3137 1594 3141 1602 3139 1604C 3137 1606 3116 1586 3092 1559zM2935 1410C 2932 1405 2919 1395 2907 1389C 2888 1380 2888 1381 2910 1399C 2938 1422 2944 1425 2935 1410z" stroke="none" fill="#000000" fill-rule="nonzero" />
        <path d="M1704 1568C 1700 1561 1701 1558 1705 1563C 1710 1567 1725 1560 1739 1548C 1754 1534 1759 1532 1750 1543C 1738 1560 1739 1561 1766 1554C 1786 1550 1792 1551 1785 1558C 1768 1575 1713 1583 1704 1568z" stroke="none" fill="#000000" fill-rule="nonzero" />
        <path d="M1838 1553C 1845 1550 1854 1551 1857 1554C 1861 1557 1855 1560 1844 1559C 1833 1559 1830 1556 1838 1553z" stroke="none" fill="#000000" fill-rule="nonzero" />
        <path d="M1948 1553C 1954 1551 1966 1551 1973 1553C 1979 1556 1974 1558 1960 1558C 1946 1558 1941 1556 1948 1553z" stroke="none" fill="#000000" fill-rule="nonzero" />
        <path d="M2449 1543C 2436 1526 2436 1526 2455 1540C 2466 1548 2477 1556 2479 1557C 2481 1559 2479 1560 2473 1560C 2467 1560 2456 1552 2449 1543z" stroke="none" fill="#000000" fill-rule="nonzero" />
        <path d="M3388 1543C 3395 1540 3404 1541 3407 1544C 3411 1547 3405 1550 3394 1549C 3383 1549 3380 1546 3388 1543z" stroke="none" fill="#000000" fill-rule="nonzero" />
        <path d="M2462 1528C 2455 1521 2450 1509 2450 1501C 2450 1490 2454 1491 2470 1505C 2491 1524 2496 1540 2482 1540C 2478 1540 2469 1535 2462 1528z" stroke="none" fill="#000000" fill-rule="nonzero" />
        <path d="M3230 1514C 3188 1485 3194 1484 3250 1509C 3273 1519 3286 1530 3278 1532C 3271 1535 3249 1527 3230 1514z" stroke="none" fill="#000000" fill-rule="nonzero" />
        <path d="M3338 1533C 3345 1530 3354 1531 3357 1534C 3361 1537 3355 1540 3344 1539C 3333 1539 3330 1536 3338 1533z" stroke="none" fill="#000000" fill-rule="nonzero" />
        <path d="M3325 1516C 3292 1509 3252 1496 3235 1486L3235 1486L3205 1469L3250 1474C 3281 1478 3289 1476 3275 1470C 3243 1456 3277 1458 3367 1475C 3410 1483 3477 1491 3515 1492L3515 1492L3585 1493L3520 1500L3455 1507L3505 1509C 3543 1511 3550 1513 3535 1520C 3507 1532 3396 1530 3325 1516zM3428 1503C 3418 1501 3400 1501 3388 1503C 3375 1505 3383 1507 3405 1507C 3427 1508 3437 1506 3428 1503zM3357 1494C 3354 1491 3345 1490 3338 1493C 3330 1496 3333 1499 3344 1499C 3355 1500 3361 1497 3357 1494z" stroke="none" fill="#000000" fill-rule="nonzero" />
        <path d="M2578 1498C 2557 1477 2557 1475 2573 1472C 2591 1468 2630 1495 2630 1512C 2630 1528 2600 1520 2578 1498z" stroke="none" fill="#000000" fill-rule="nonzero" />
        <path d="M3610 1516C 3610 1514 3618 1506 3628 1499C 3643 1486 3644 1487 3631 1503C 3618 1519 3610 1524 3610 1516z" stroke="none" fill="#000000" fill-rule="nonzero" />
        <path d="M2474 1488L2455 1465L2478 1484C 2499 1502 2505 1510 2497 1510C 2495 1510 2485 1500 2474 1488z" stroke="none" fill="#000000" fill-rule="nonzero" />
        <path d="M1900 1496C 1900 1494 1908 1486 1918 1479C 1933 1466 1934 1467 1921 1483C 1908 1499 1900 1504 1900 1496z" stroke="none" fill="#000000" fill-rule="nonzero" />
        <path d="M2629 1483C 2616 1467 2617 1466 2633 1479C 2649 1492 2654 1500 2646 1500C 2644 1500 2636 1492 2629 1483z" stroke="none" fill="#000000" fill-rule="nonzero" />
        <path d="M3458 1473C 3465 1470 3474 1471 3477 1474C 3481 1477 3475 1480 3464 1479C 3453 1479 3450 1476 3458 1473z" stroke="none" fill="#000000" fill-rule="nonzero" />
        <path d="M2338 1463C 2345 1460 2354 1461 2357 1464C 2361 1467 2355 1470 2344 1469C 2333 1469 2330 1466 2338 1463z" stroke="none" fill="#000000" fill-rule="nonzero" />
        <path d="M2975 1460C 2972 1455 2973 1450 2979 1450C 2984 1450 2992 1455 2995 1460C 2998 1466 2997 1470 2991 1470C 2986 1470 2978 1466 2975 1460z" stroke="none" fill="#000000" fill-rule="nonzero" />
        <path d="M3175 1460C 3172 1454 3176 1453 3184 1456C 3202 1463 3205 1470 3191 1470C 3185 1470 3178 1466 3175 1460z" stroke="none" fill="#000000" fill-rule="nonzero" />
        <path d="M2326 1433C 2320 1419 2321 1418 2331 1427C 2338 1434 2341 1442 2338 1445C 2335 1448 2329 1443 2326 1433z" stroke="none" fill="#000000" fill-rule="nonzero" />
        <path d="M2775 1430C 2772 1425 2764 1423 2757 1426C 2750 1428 2724 1416 2699 1398C 2675 1380 2615 1349 2565 1329C 2483 1295 2478 1291 2503 1284C 2534 1277 2640 1299 2694 1325C 2714 1335 2740 1361 2758 1391C 2775 1418 2787 1440 2785 1440C 2783 1440 2779 1436 2775 1430zM2735 1394C 2702 1367 2590 1306 2584 1313C 2582 1315 2603 1327 2631 1341C 2660 1354 2699 1377 2719 1392C 2764 1426 2775 1428 2735 1394zM2537 1294C 2534 1291 2525 1290 2518 1293C 2510 1296 2513 1299 2524 1299C 2535 1300 2541 1297 2537 1294z" stroke="none" fill="#000000" fill-rule="nonzero" />
        <path d="M3002 1415C 2958 1385 2957 1383 2975 1376C 2984 1373 2988 1374 2985 1380C 2981 1386 2997 1399 3020 1409C 3044 1419 3056 1430 3048 1432C 3041 1435 3020 1427 3002 1415z" stroke="none" fill="#000000" fill-rule="nonzero" />
        <path d="M2849 1383L2825 1355L2853 1379C 2878 1402 2885 1410 2877 1410C 2875 1410 2863 1398 2849 1383z" stroke="none" fill="#000000" fill-rule="nonzero" />
        <path d="M2408 1366C 2352 1345 2326 1330 2348 1330C 2353 1330 2367 1327 2377 1324C 2392 1319 2392 1320 2380 1329C 2368 1337 2372 1340 2398 1340C 2430 1340 2489 1374 2473 1382C 2469 1385 2439 1377 2408 1366z" stroke="none" fill="#000000" fill-rule="nonzero" />
        <path d="M2478 1353C 2485 1350 2494 1351 2497 1354C 2501 1357 2495 1360 2484 1359C 2473 1359 2470 1356 2478 1353z" stroke="none" fill="#000000" fill-rule="nonzero" />
        <path d="M2897 1338C 2890 1334 2919 1331 2960 1331C 3039 1332 3038 1337 2957 1342C 2930 1344 2903 1342 2897 1338z" stroke="none" fill="#000000" fill-rule="nonzero" />
        <path d="M2228 1323C 2234 1321 2246 1321 2253 1323C 2259 1326 2254 1328 2240 1328C 2226 1328 2221 1326 2228 1323z" stroke="none" fill="#000000" fill-rule="nonzero" />
        <path d="M2825 1305L2775 1290L2825 1296C 2857 1299 2870 1298 2861 1292C 2844 1280 2915 1264 3020 1254C 3061 1251 3119 1240 3148 1230C 3224 1203 3244 1216 3183 1251C 3157 1266 3122 1286 3105 1296C 3065 1319 2895 1325 2825 1305zM2983 1293C 2976 1291 2962 1291 2953 1293C 2943 1296 2949 1298 2965 1298C 2982 1298 2989 1296 2983 1293zM3043 1283C 3036 1281 3024 1281 3018 1283C 3011 1286 3016 1288 3030 1288C 3044 1288 3049 1286 3043 1283zM3100 1270C 3118 1258 3102 1258 3075 1270C 3062 1276 3060 1279 3070 1279C 3078 1279 3092 1275 3100 1270zM3170 1244C 3193 1235 3209 1226 3207 1224C 3205 1221 3183 1228 3159 1239C 3105 1263 3114 1266 3170 1244z" stroke="none" fill="#000000" fill-rule="nonzero" />
        <path d="M2228 1303C 2235 1300 2244 1301 2247 1304C 2251 1307 2245 1310 2234 1309C 2223 1309 2220 1306 2228 1303z" stroke="none" fill="#000000" fill-rule="nonzero" />
        <path d="M2655 1294L2625 1280L2660 1286C 2679 1290 2704 1296 2715 1301C 2733 1308 2732 1309 2710 1309C 2696 1308 2672 1302 2655 1294z" stroke="none" fill="#000000" fill-rule="nonzero" />
        <path d="M2348 1293C 2360 1291 2380 1291 2393 1293C 2405 1295 2395 1297 2370 1297C 2345 1297 2335 1295 2348 1293z" stroke="none" fill="#000000" fill-rule="nonzero" />
        <path d="M2227 1278C 2231 1271 2235 1262 2235 1258C 2235 1255 2238 1249 2242 1245C 2245 1241 2247 1246 2246 1257C 2244 1267 2250 1278 2259 1282C 2270 1286 2266 1289 2247 1289C 2227 1290 2221 1286 2227 1278z" stroke="none" fill="#000000" fill-rule="nonzero" />
        <path d="M2508 1253C 2515 1250 2524 1251 2527 1254C 2531 1257 2525 1260 2514 1259C 2503 1259 2500 1256 2508 1253z" stroke="none" fill="#000000" fill-rule="nonzero" />
        <path d="M2663 1248C 2698 1239 2699 1237 2683 1224C 2666 1211 2666 1210 2684 1217C 2697 1221 2701 1220 2696 1212C 2691 1204 2695 1202 2706 1207C 2718 1211 2721 1210 2716 1202C 2711 1194 2715 1192 2726 1197C 2738 1201 2741 1200 2736 1192C 2732 1185 2734 1182 2743 1186C 2750 1188 2778 1182 2803 1171C 2829 1160 2850 1153 2850 1157C 2850 1160 2857 1157 2865 1150C 2884 1134 2884 1150 2865 1176C 2845 1202 2846 1215 2868 1199C 2882 1188 2881 1189 2866 1208C 2846 1231 2834 1238 2846 1218C 2851 1210 2848 1209 2836 1213C 2800 1227 2661 1260 2643 1259C 2633 1258 2642 1253 2663 1248zM2770 1214C 2793 1205 2809 1196 2807 1194C 2805 1192 2782 1199 2754 1210C 2727 1220 2711 1229 2717 1230C 2724 1230 2748 1223 2770 1214zM2841 1173C 2854 1157 2853 1156 2838 1169C 2828 1176 2820 1184 2820 1186C 2820 1194 2828 1189 2841 1173z" stroke="none" fill="#000000" fill-rule="nonzero" />
        <path d="M2274 1236C 2275 1228 2279 1218 2282 1214C 2286 1211 2287 1215 2286 1224C 2285 1232 2281 1242 2278 1246C 2274 1249 2273 1245 2274 1236z" stroke="none" fill="#000000" fill-rule="nonzero" />
        <path d="M2958 1243C 2965 1240 2974 1241 2977 1244C 2981 1247 2975 1250 2964 1249C 2953 1249 2950 1246 2958 1243z" stroke="none" fill="#000000" fill-rule="nonzero" />
        <path d="M2416 1215C 2405 1207 2401 1200 2407 1200C 2413 1200 2423 1207 2430 1215C 2446 1234 2441 1234 2416 1215z" stroke="none" fill="#000000" fill-rule="nonzero" />
        <path d="M2438 1193C 2444 1191 2456 1191 2463 1193C 2469 1196 2464 1198 2450 1198C 2436 1198 2431 1196 2438 1193z" stroke="none" fill="#000000" fill-rule="nonzero" />
        <path d="M2588 1183C 2595 1180 2604 1181 2607 1184C 2611 1187 2605 1190 2594 1189C 2583 1189 2580 1186 2588 1183z" stroke="none" fill="#000000" fill-rule="nonzero" />
        <path d="M2356 1172C 2353 1167 2360 1154 2373 1144C 2394 1125 2394 1125 2380 1144C 2372 1155 2367 1165 2368 1167C 2370 1170 2369 1174 2367 1176C 2364 1179 2359 1177 2356 1172z" stroke="none" fill="#000000" fill-rule="nonzero" />
        <path d="M2458 1173C 2464 1171 2476 1171 2483 1173C 2489 1176 2484 1178 2470 1178C 2456 1178 2451 1176 2458 1173z" stroke="none" fill="#000000" fill-rule="nonzero" />
        <path d="M2562 1161C 2551 1154 2552 1151 2565 1146C 2590 1137 2640 1139 2640 1149C 2640 1168 2586 1177 2562 1161z" stroke="none" fill="#000000" fill-rule="nonzero" />
        <path d="M2450 1080C 2450 1075 2449 1067 2448 1063C 2446 1060 2454 1056 2464 1054C 2475 1053 2496 1042 2512 1030C 2528 1018 2539 1014 2538 1022C 2533 1046 2450 1101 2450 1080z" stroke="none" fill="#000000" fill-rule="nonzero" />
        <path d="M2534 1055C 2556 1038 2580 1035 2580 1049C 2580 1059 2555 1070 2532 1070C 2517 1069 2518 1067 2534 1055z" stroke="none" fill="#000000" fill-rule="nonzero" />
        <path d="M2490 1026C 2490 1024 2498 1016 2508 1009C 2523 996 2524 997 2511 1013C 2498 1029 2490 1034 2490 1026z" stroke="none" fill="#000000" fill-rule="nonzero" />
        <path d="M2470 1016C 2470 1014 2478 1006 2488 999C 2503 986 2504 987 2491 1003C 2478 1019 2470 1024 2470 1016z" stroke="none" fill="#000000" fill-rule="nonzero" />
	</g>
</g>
</svg>