<?xml version="1.0" standalone="no"?>
<!DOCTYPE svg PUBLIC "-//W3C//DTD SVG 20010904//EN"
 "http://www.w3.org/TR/2001/REC-SVG-20010904/DTD/svg10.dtd">
<svg version="1.0" xmlns="http://www.w3.org/2000/svg"
 width="500.000000pt" height="500.000000pt" viewBox="0 0 500.000000 500.000000"
 preserveAspectRatio="xMidYMid meet">

<g transform="translate(0.000000,500.000000) scale(0.100000,-0.100000)"
fill="#000000" stroke="none">
<path d="M2465 4010 c-3 -6 1 -7 9 -4 18 7 21 14 7 14 -6 0 -13 -4 -16 -10z"/>
<path d="M2500 4006 c0 -2 8 -10 18 -17 15 -13 16 -12 3 4 -13 16 -21 21 -21
13z"/>
<path d="M2480 3996 c0 -2 8 -10 18 -17 15 -13 16 -12 3 4 -13 16 -21 21 -21
13z"/>
<path d="M2463 3977 c1 -6 13 -20 26 -31 23 -19 23 -20 5 -28 -15 -7 -14 -8 5
-4 13 3 32 1 40 -4 13 -6 17 -4 17 10 0 10 -3 17 -6 15 -3 -2 -24 10 -48 26
-23 15 -41 23 -39 16z"/>
<path d="M2420 3951 c0 -10 25 -21 48 -21 15 1 14 3 -2 15 -22 17 -46 20 -46
6z"/>
<path d="M2383 3873 c9 -2 23 -2 30 0 6 3 -1 5 -18 5 -16 0 -22 -2 -12 -5z"/>
<path d="M2120 3853 c0 -6 11 -25 25 -41 19 -23 44 -35 103 -51 80 -21 146
-28 85 -9 -30 10 -31 12 -15 24 16 13 16 14 -2 7 -13 -4 -17 -3 -12 5 5 8 1
10 -10 5 -13 -5 -15 -3 -9 7 5 9 4 11 -4 6 -7 -5 -35 2 -63 14 -65 28 -74 19
-11 -14 26 -14 44 -25 40 -26 -15 0 -72 32 -99 58 -16 14 -28 21 -28 15z"/>
<path d="M2360 3850 c0 -13 45 -24 66 -16 8 3 12 10 9 16 -8 13 -75 13 -75 0z"/>
<path d="M2625 3840 c6 -29 11 -34 18 -16 3 8 0 20 -8 26 -12 10 -13 8 -10
-10z"/>
<path d="M2398 3813 c7 -3 16 -2 19 1 4 3 -2 6 -13 5 -11 0 -14 -3 -6 -6z"/>
<path d="M2560 3810 c-23 -7 -23 -8 -3 -9 12 -1 25 4 28 9 3 6 5 10 3 9 -2 -1
-14 -5 -28 -9z"/>
<path d="M2135 3790 c10 -11 20 -20 23 -20 3 0 -3 9 -13 20 -10 11 -20 20 -23
20 -3 0 3 -9 13 -20z"/>
<path d="M1785 3779 c-3 -4 13 -19 35 -31 124 -69 120 -68 210 -68 47 1 108 7
135 14 49 14 49 14 -55 11 -89 -2 -94 -2 -30 4 91 7 70 17 -70 31 -52 5 -123
18 -158 29 -34 10 -64 15 -67 10z m55 -19 c8 -5 11 -10 5 -10 -5 0 -17 5 -25
10 -8 5 -10 10 -5 10 6 0 17 -5 25 -10z m50 -20 c8 -5 11 -10 5 -10 -5 0 -17
5 -25 10 -8 5 -10 10 -5 10 6 0 17 -5 25 -10z m70 -20 c20 -6 21 -8 5 -8 -11
0 -29 3 -40 8 -25 11 1 11 35 0z"/>
<path d="M2543 3783 c9 -2 15 -9 12 -14 -9 -14 1 -11 13 4 8 10 5 13 -16 14
-15 0 -19 -1 -9 -4z"/>
<path d="M1918 3763 c7 -3 16 -2 19 1 4 3 -2 6 -13 5 -11 0 -14 -3 -6 -6z"/>
<path d="M2003 3753 c9 -2 25 -2 35 0 9 3 1 5 -18 5 -19 0 -27 -2 -17 -5z"/>
<path d="M2754 3743 c2 -14 -5 -19 -33 -24 -34 -6 -33 -6 13 -8 44 -1 47 1 35
16 -8 9 -12 18 -11 20 2 3 1 7 -1 10 -3 3 -4 -3 -3 -14z"/>
<path d="M2463 3743 c9 -2 23 -2 30 0 6 3 -1 5 -18 5 -16 0 -22 -2 -12 -5z"/>
<path d="M2558 3733 c7 -3 16 -2 19 1 4 3 -2 6 -13 5 -11 0 -14 -3 -6 -6z"/>
<path d="M2618 3723 c6 -2 18 -2 25 0 6 3 1 5 -13 5 -14 0 -19 -2 -12 -5z"/>
<path d="M2238 3713 c12 -2 32 -2 45 0 12 2 2 4 -23 4 -25 0 -35 -2 -22 -4z"/>
<path d="M2411 3709 c-72 -14 -132 -50 -167 -99 -18 -25 -33 -49 -33 -55 0 -5
4 -2 10 8 6 9 15 15 20 11 6 -3 35 11 66 31 30 20 61 34 69 31 8 -3 13 -2 10
3 -6 8 107 61 134 62 23 1 -21 18 -45 17 -11 0 -40 -4 -64 -9z m34 -19 c-27
-12 -43 -12 -25 0 8 5 22 9 30 9 10 0 8 -3 -5 -9z m-85 -34 c0 -2 -7 -7 -16
-10 -8 -3 -12 -2 -9 4 6 10 25 14 25 6z m-60 -37 c-27 -21 -71 -47 -55 -32 19
18 68 53 74 53 3 0 -5 -9 -19 -21z"/>
<path d="M2296 3701 c-11 -4 -15 -10 -10 -13 5 -3 23 1 39 8 22 10 25 13 10
13 -11 0 -29 -4 -39 -8z"/>
<path d="M2730 3690 c-18 -12 -2 -12 25 0 13 6 15 9 5 9 -8 0 -22 -4 -30 -9z"/>
<path d="M3311 3670 c-64 -29 -117 -75 -183 -158 -112 -141 -226 -361 -318
-615 l-41 -112 -80 -43 c-43 -24 -79 -38 -79 -32 0 5 13 70 29 143 65 292 103
502 97 535 -6 38 -46 96 -77 113 -27 14 -65 4 -74 -18 -3 -10 -24 -112 -46
-228 -22 -115 -58 -291 -80 -390 -22 -99 -46 -212 -54 -251 -15 -82 -32 -118
-74 -158 l-31 -30 0 38 0 37 -43 -35 c-33 -27 -46 -33 -55 -24 -7 7 -3 -6 8
-27 11 -22 20 -59 20 -83 0 -29 4 -41 11 -36 14 8 8 -13 -33 -116 -16 -41 -32
-82 -35 -90 -3 -8 16 6 43 31 68 63 117 82 198 77 l65 -4 6 36 c3 20 12 49 20
63 l14 27 -34 -26 c-38 -29 -151 -68 -167 -57 -6 3 -8 2 -5 -4 4 -6 0 -18 -7
-28 -11 -16 -13 -8 -10 52 2 63 23 133 40 133 6 0 -2 -72 -13 -120 -6 -22 -5
-24 10 -11 10 7 17 10 17 7 0 -4 19 6 43 23 24 16 62 34 85 40 36 10 42 16 48
46 3 20 16 48 27 63 12 15 -4 4 -33 -24 -30 -28 -76 -63 -102 -78 -26 -15 -50
-36 -53 -47 -4 -11 -9 -18 -12 -15 -8 7 56 121 80 144 12 12 47 36 77 54 30
18 55 38 55 43 0 6 6 36 13 67 13 57 13 57 86 98 41 22 76 40 79 40 4 0 2 -12
-4 -27 -6 -16 -26 -90 -44 -165 -119 -484 -26 -745 221 -623 43 21 93 63 182
152 67 67 122 127 122 133 0 6 -7 13 -15 16 -11 4 -50 -29 -123 -104 -162
-166 -220 -193 -259 -119 -51 96 -8 448 95 771 19 58 19 59 98 100 161 83 300
202 384 327 24 35 47 66 52 67 4 2 8 13 8 24 0 15 4 18 18 13 12 -4 14 -3 6 5
-8 8 -5 27 13 71 87 215 -16 386 -186 309z m-1040 -1317 c-12 -20 -14 -14 -5
12 4 9 9 14 11 11 3 -2 0 -13 -6 -23z"/>
<path d="M2618 3673 c6 -2 18 -2 25 0 6 3 1 5 -13 5 -14 0 -19 -2 -12 -5z"/>
<path d="M2758 3673 c7 -3 16 -2 19 1 4 3 -2 6 -13 5 -11 0 -14 -3 -6 -6z"/>
<path d="M1973 3663 c9 -2 23 -2 30 0 6 3 -1 5 -18 5 -16 0 -22 -2 -12 -5z"/>
<path d="M2085 3660 c-3 -6 1 -7 9 -4 18 7 21 14 7 14 -6 0 -13 -4 -16 -10z"/>
<path d="M2927 3659 c7 -7 15 -10 18 -7 3 3 -2 9 -12 12 -14 6 -15 5 -6 -5z"/>
<path d="M2553 3644 c-53 -26 -27 -35 35 -12 71 26 73 28 31 28 -19 0 -49 -8
-66 -16z"/>
<path d="M2001 3601 c-30 -15 -50 -30 -45 -33 5 -3 34 10 64 28 67 41 56 44
-19 5z"/>
<path d="M2029 3585 c-41 -24 -86 -55 -102 -70 -35 -33 -62 -74 -54 -82 4 -3
1 -15 -5 -27 -11 -20 -10 -20 9 -3 11 9 22 15 25 12 2 -3 15 6 28 20 13 14 20
25 15 25 -5 0 4 14 20 30 44 46 14 36 -39 -13 -25 -24 -46 -41 -46 -37 0 16
186 160 206 160 5 0 -8 -11 -29 -25 -42 -29 -43 -31 -22 -39 8 -3 14 0 12 7
-1 7 6 11 16 11 10 -1 16 1 13 4 -4 3 5 18 20 33 42 44 13 41 -67 -6z m-89
-128 c0 -2 -10 -12 -22 -23 l-23 -19 19 23 c18 21 26 27 26 19z"/>
<path d="M2124 3598 l-29 -33 33 29 c30 28 37 36 29 36 -2 0 -16 -15 -33 -32z"/>
<path d="M1818 3563 c7 -3 16 -2 19 1 4 3 -2 6 -13 5 -11 0 -14 -3 -6 -6z"/>
<path d="M1733 3553 c9 -2 23 -2 30 0 6 3 -1 5 -18 5 -16 0 -22 -2 -12 -5z"/>
<path d="M1658 3543 c7 -3 16 -2 19 1 4 3 -2 6 -13 5 -11 0 -14 -3 -6 -6z"/>
<path d="M2214 3518 l-29 -33 33 29 c30 28 37 36 29 36 -2 0 -16 -15 -33 -32z"/>
<path d="M1635 3524 c-33 -7 -95 -13 -137 -14 -42 0 -79 -3 -81 -7 -3 -5 18
-7 46 -6 47 1 48 1 17 -6 -19 -5 -30 -9 -25 -10 6 -1 30 -6 55 -11 56 -10 187
11 259 43 l50 22 -62 1 c-34 1 -89 -5 -122 -12z m90 -4 c-27 -12 -43 -12 -25
0 8 5 22 9 30 9 10 0 8 -3 -5 -9z m-52 -17 c-7 -2 -19 -2 -25 0 -7 3 -2 5 12
5 14 0 19 -2 13 -5z m-50 -10 c-7 -2 -19 -2 -25 0 -7 3 -2 5 12 5 14 0 19 -2
13 -5z m-50 -10 c-7 -2 -21 -2 -30 0 -10 3 -4 5 12 5 17 0 24 -2 18 -5z"/>
<path d="M1995 3530 c-3 -5 -1 -10 5 -10 6 0 8 -6 4 -12 -4 -7 -3 -9 1 -5 12
10 15 37 5 37 -5 0 -12 -4 -15 -10z"/>
<path d="M1364 3519 c-3 -6 1 -17 10 -25 9 -8 11 -9 6 -2 -20 24 -8 27 98 31
l107 3 -107 2 c-69 1 -109 -2 -114 -9z"/>
<path d="M2392 3514 c-28 -19 -28 -36 -1 -32 26 4 60 48 37 48 -7 0 -24 -7
-36 -16z"/>
<path d="M2514 3508 l-19 -23 23 19 c21 18 27 26 19 26 -2 0 -12 -10 -23 -22z"/>
<path d="M1755 3489 c-22 -10 -38 -19 -35 -20 25 -5 49 -4 47 2 -1 4 7 15 18
23 26 20 19 19 -30 -5z"/>
<path d="M2527 3492 c-21 -23 -21 -32 -3 -32 8 0 18 9 21 21 9 28 2 33 -18 11z"/>
<path d="M1658 3463 c7 -3 16 -2 19 1 4 3 -2 6 -13 5 -11 0 -14 -3 -6 -6z"/>
<path d="M1644 3398 l-19 -23 23 19 c21 18 27 26 19 26 -2 0 -12 -10 -23 -22z"/>
<path d="M1623 3347 c-50 -53 -102 -137 -84 -137 5 0 11 6 14 14 3 8 16 20 27
26 19 10 21 10 16 -8 -4 -10 -2 -30 3 -43 7 -19 9 -14 6 23 -2 32 2 52 12 60
8 6 22 29 30 50 8 21 19 35 24 32 5 -3 6 3 2 12 -5 13 -3 15 7 9 9 -5 11 -4 6
3 -4 7 -9 12 -10 12 -2 0 -26 -24 -53 -53z"/>
<path d="M1837 3383 c-4 -3 -7 -16 -6 -27 0 -19 1 -19 10 3 10 24 8 36 -4 24z"/>
<path d="M1172 3291 c-20 -12 4 -47 47 -67 37 -18 85 -14 142 11 l34 14 -35 2
c-32 1 -33 2 -10 8 24 7 24 8 -10 18 -50 16 -153 25 -168 14z m59 -30 c15 -6
18 -10 8 -10 -9 -1 -25 7 -36 17 -10 9 -14 14 -8 10 6 -4 22 -12 36 -17z m77
-18 c-10 -2 -26 -2 -35 0 -10 3 -2 5 17 5 19 0 27 -2 18 -5z"/>
<path d="M1524 3268 l-19 -23 23 19 c21 18 27 26 19 26 -2 0 -12 -10 -23 -22z"/>
<path d="M1671 3274 c0 -11 3 -14 6 -6 3 7 2 16 -1 19 -3 4 -6 -2 -5 -13z"/>
<path d="M1398 3273 c6 -2 18 -2 25 0 6 3 1 5 -13 5 -14 0 -19 -2 -12 -5z"/>
<path d="M1701 3264 c0 -11 3 -14 6 -6 3 7 2 16 -1 19 -3 4 -6 -2 -5 -13z"/>
<path d="M3486 3220 c3 -14 22 -67 41 -118 19 -51 31 -97 27 -104 -4 -6 -3 -8
3 -5 5 3 17 -10 26 -29 20 -41 21 -48 5 -38 -7 5 -8 3 -4 -5 5 -7 11 -10 14
-6 3 3 21 -9 40 -27 31 -30 28 -21 -47 127 -45 88 -81 164 -81 170 0 5 42 -72
92 -172 51 -101 96 -183 100 -183 21 0 3 72 -38 159 -73 153 -75 156 -121 207
-36 40 -43 45 -38 24 l6 -25 -16 25 -16 25 7 -25z"/>
<path d="M1258 3193 c6 -2 18 -2 25 0 6 3 1 5 -13 5 -14 0 -19 -2 -12 -5z"/>
<path d="M3560 3196 c0 -2 8 -10 18 -17 15 -13 16 -12 3 4 -13 16 -21 21 -21
13z"/>
<path d="M1198 3183 c6 -2 18 -2 25 0 6 3 1 5 -13 5 -14 0 -19 -2 -12 -5z"/>
<path d="M1694 3153 c-14 -74 30 -142 101 -157 l30 -7 -33 27 c-29 23 -68 91
-58 101 2 2 9 -11 16 -29 16 -40 39 -68 55 -68 6 0 -6 36 -29 81 -39 77 -41
80 -47 53 l-7 -29 -1 33 c-1 44 -18 41 -27 -5z"/>
<path d="M1451 3171 c-8 -5 -9 -11 -3 -15 5 -3 12 1 16 9 6 17 6 18 -13 6z"/>
<path d="M1194 3159 c-3 -5 6 -9 20 -9 31 0 34 6 6 13 -11 3 -23 1 -26 -4z"/>
<path d="M1587 3163 c-11 -10 -8 -43 3 -43 6 0 10 11 10 25 0 26 -2 29 -13 18z"/>
<path d="M1043 3153 c9 -2 23 -2 30 0 6 3 -1 5 -18 5 -16 0 -22 -2 -12 -5z"/>
<path d="M1385 3151 c-3 -5 -2 -12 3 -15 5 -3 9 1 9 9 0 17 -3 19 -12 6z"/>
<path d="M1090 3146 c0 -2 8 -10 18 -17 15 -13 16 -12 3 4 -13 16 -21 21 -21
13z"/>
<path d="M1303 3143 c9 -2 23 -2 30 0 6 3 -1 5 -18 5 -16 0 -22 -2 -12 -5z"/>
<path d="M1560 3131 c0 -11 4 -22 9 -25 4 -3 6 6 3 19 -5 30 -12 33 -12 6z"/>
<path d="M1036 3131 c-7 -10 43 -25 52 -16 7 7 -18 25 -35 25 -6 0 -14 -4 -17
-9z"/>
<path d="M1203 3133 c9 -2 23 -2 30 0 6 3 -1 5 -18 5 -16 0 -22 -2 -12 -5z"/>
<path d="M1512 3055 c-1 -50 2 -95 6 -100 4 -6 5 -30 1 -55 -6 -43 -6 -44 -9
-10 -2 25 -5 16 -12 -35 -10 -75 0 -133 27 -155 13 -11 15 -8 16 16 0 25 1 26
9 9 7 -16 9 -11 9 20 0 67 -16 177 -32 215 -4 8 -8 53 -10 100 l-3 85 -2 -90z
m15 -237 c-3 -7 -5 -2 -5 12 0 14 2 19 5 13 2 -7 2 -19 0 -25z m10 -55 c-3
-10 -5 -4 -5 12 0 17 2 24 5 18 2 -7 2 -21 0 -30z"/>
<path d="M1446 3112 c-3 -5 1 -9 9 -9 8 0 12 4 9 9 -3 4 -7 8 -9 8 -2 0 -6 -4
-9 -8z"/>
<path d="M1218 3093 c7 -3 16 -2 19 1 4 3 -2 6 -13 5 -11 0 -14 -3 -6 -6z"/>
<path d="M1239 3053 c-13 -16 -12 -17 4 -4 9 7 17 15 17 17 0 8 -8 3 -21 -13z"/>
<path d="M1197 3049 c7 -7 15 -10 18 -7 3 3 -2 9 -12 12 -14 6 -15 5 -6 -5z"/>
<path d="M1409 3033 c-13 -16 -12 -17 4 -4 9 7 17 15 17 17 0 8 -8 3 -21 -13z"/>
<path d="M1127 3019 c7 -7 15 -10 18 -7 3 3 -2 9 -12 12 -14 6 -15 5 -6 -5z"/>
<path d="M1196 3022 c-3 -5 1 -9 9 -9 8 0 12 4 9 9 -3 4 -7 8 -9 8 -2 0 -6 -4
-9 -8z"/>
<path d="M1700 3026 c0 -2 8 -10 18 -17 15 -13 16 -12 3 4 -13 16 -21 21 -21
13z"/>
<path d="M1088 3013 c10 -4 9 -10 -5 -26 l-18 -21 26 20 c25 18 22 35 -6 33
-5 0 -4 -3 3 -6z"/>
<path d="M1017 2993 c-13 -12 -7 -23 12 -23 10 0 24 7 31 15 10 13 9 15 -12
15 -14 0 -28 -3 -31 -7z"/>
<path d="M1201 2984 c0 -11 3 -14 6 -6 3 7 2 16 -1 19 -3 4 -6 -2 -5 -13z"/>
<path d="M1160 2961 c-13 -25 -13 -34 0 -26 16 10 32 45 21 45 -6 0 -15 -9
-21 -19z"/>
<path d="M1315 2960 c-11 -12 -20 -28 -21 -36 -2 -14 0 -13 16 1 22 20 33 7
25 -32 -5 -27 -5 -27 5 -4 11 26 5 61 -12 61 -6 0 -6 6 2 15 19 23 6 18 -15
-5z"/>
<path d="M1137 2919 c7 -7 15 -10 18 -7 3 3 -2 9 -12 12 -14 6 -15 5 -6 -5z"/>
<path d="M3412 2902 c-8 -6 7 -16 44 -32 31 -12 78 -38 105 -56 66 -44 65 -19
-1 46 -44 45 -54 50 -92 50 -24 0 -49 -4 -56 -8z"/>
<path d="M3723 2865 c0 -22 2 -30 4 -17 2 12 2 30 0 40 -3 9 -5 -1 -4 -23z"/>
<path d="M1167 2831 c-29 -27 -56 -49 -60 -49 -5 0 -12 -4 -15 -8 -4 -4 -1 -4
6 0 18 11 15 -1 -10 -34 -30 -41 -15 -50 25 -14 31 28 31 28 8 2 -37 -43 -6
-33 44 13 24 22 47 40 52 41 4 0 10 2 13 5 3 4 -1 3 -7 -1 -19 -11 -16 1 8 34
21 28 20 60 -1 60 -6 0 -35 -22 -63 -49z m55 12 c-11 -16 -35 -41 -53 -58 -20
-18 -13 -7 17 27 53 62 67 74 36 31z"/>
<path d="M3383 2868 c0 -8 7 -14 16 -15 9 0 54 -17 101 -37 46 -20 87 -36 90
-36 11 1 -37 33 -90 60 -69 35 -117 46 -117 28z"/>
<path d="M1144 2838 l-19 -23 23 19 c12 11 22 21 22 23 0 8 -8 2 -26 -19z"/>
<path d="M3881 2779 c-22 -16 -43 -39 -46 -51 -25 -107 -24 -176 2 -107 l13
34 -6 -33 c-5 -31 -4 -33 13 -24 42 23 85 100 96 172 7 47 -17 50 -72 9z m38
-16 c-39 -63 -69 -106 -69 -98 0 9 81 135 87 135 3 0 -6 -17 -18 -37z"/>
<path d="M1572 2750 c0 -19 2 -27 5 -17 2 9 2 25 0 35 -3 9 -5 1 -5 -18z"/>
<path d="M3638 2729 c23 -27 62 -38 40 -12 -6 7 -13 11 -16 8 -3 -3 -15 3 -26
12 -18 15 -18 14 2 -8z"/>
<path d="M1169 2723 c-13 -16 -12 -17 4 -4 9 7 17 15 17 17 0 8 -8 3 -21 -13z"/>
<path d="M1331 2731 c-7 -5 -12 -14 -10 -20 2 -6 10 -2 17 9 14 22 13 23 -7
11z"/>
<path d="M1053 2696 c1 -11 9 -21 17 -23 10 -3 11 -2 4 4 -6 4 -14 15 -17 23
-5 11 -6 9 -4 -4z"/>
<path d="M3581 2654 c0 -11 3 -14 6 -6 3 7 2 16 -1 19 -3 4 -6 -2 -5 -13z"/>
<path d="M3600 2658 c0 -9 9 -26 21 -39 l20 -24 -7 25 c-3 14 -12 32 -20 40
-12 12 -14 12 -14 -2z"/>
<path d="M3889 2603 c-13 -16 -12 -17 4 -4 16 13 21 21 13 21 -2 0 -10 -8 -17
-17z"/>
<path d="M1267 2594 c5 -13 3 -15 -7 -9 -9 5 -11 4 -6 -3 4 -7 11 -12 17 -12
12 0 12 27 -1 35 -6 4 -7 -1 -3 -11z"/>
<path d="M3620 2585 c13 -14 26 -25 28 -25 3 0 -5 11 -18 25 -13 14 -26 25
-28 25 -3 0 5 -11 18 -25z"/>
<path d="M3651 2594 c0 -11 3 -14 6 -6 3 7 2 16 -1 19 -3 4 -6 -2 -5 -13z"/>
<path d="M3430 2583 c-36 -7 -50 -23 -19 -23 14 0 40 -11 59 -25 19 -14 40
-25 48 -25 7 0 27 -13 43 -29 34 -35 35 -33 9 19 -19 37 -83 92 -105 89 -5 -1
-21 -4 -35 -6z"/>
<path d="M3540 2566 c0 -2 8 -10 18 -17 15 -13 16 -12 3 4 -13 16 -21 21 -21
13z"/>
<path d="M3655 2549 c-4 -6 -5 -12 -2 -15 2 -3 7 2 10 11 7 17 1 20 -8 4z"/>
<path d="M1410 2544 c0 -23 48 -89 79 -110 31 -20 46 -24 75 -19 42 8 58 25
24 25 -13 0 -39 11 -58 25 -19 14 -30 25 -26 25 4 0 19 -9 33 -20 14 -11 35
-20 47 -20 16 1 12 5 -17 21 -21 11 -35 24 -33 28 3 5 -4 17 -17 27 l-22 19
19 -22 c11 -13 15 -23 9 -23 -12 0 -45 35 -39 41 2 2 -8 4 -24 4 -33 0 -29
-19 9 -40 14 -8 20 -14 13 -15 -8 0 -27 13 -43 29 -16 16 -29 27 -29 25z"/>
<path d="M3440 2524 c25 -14 54 -34 65 -44 11 -10 31 -21 44 -25 38 -12 21 17
-25 40 -22 11 -51 28 -64 38 -14 9 -34 17 -45 17 -14 0 -6 -8 25 -26z"/>
<path d="M3606 2537 c3 -10 9 -15 12 -12 3 3 0 11 -7 18 -10 9 -11 8 -5 -6z"/>
<path d="M2630 2531 c0 -7 -5 -9 -12 -5 -7 4 -10 3 -5 -1 4 -5 -3 -20 -15 -34
-13 -15 -8 -13 12 6 19 18 31 36 27 39 -4 4 -7 2 -7 -5z"/>
<path d="M3636 2503 c-6 -14 -5 -15 5 -6 7 7 10 15 7 18 -3 3 -9 -2 -12 -12z"/>
<path d="M1321 2494 c0 -11 3 -14 6 -6 3 7 2 16 -1 19 -3 4 -6 -2 -5 -13z"/>
<path d="M3711 2484 c0 -11 3 -14 6 -6 3 7 2 16 -1 19 -3 4 -6 -2 -5 -13z"/>
<path d="M3731 2484 c0 -11 3 -14 6 -6 3 7 2 16 -1 19 -3 4 -6 -2 -5 -13z"/>
<path d="M1570 2486 c0 -2 7 -7 16 -10 8 -3 12 -2 9 4 -6 10 -25 14 -25 6z"/>
<path d="M2121 2474 c0 -11 3 -14 6 -6 3 7 2 16 -1 19 -3 4 -6 -2 -5 -13z"/>
<path d="M3470 2486 c0 -2 8 -10 18 -17 15 -13 16 -12 3 4 -13 16 -21 21 -21
13z"/>
<path d="M1380 2471 c0 -6 4 -13 10 -16 6 -3 7 1 4 9 -7 18 -14 21 -14 7z"/>
<path d="M1411 2444 c0 -11 3 -14 6 -6 3 7 2 16 -1 19 -3 4 -6 -2 -5 -13z"/>
<path d="M1350 2436 c0 -2 8 -10 18 -17 15 -13 16 -12 3 4 -13 16 -21 21 -21
13z"/>
<path d="M1618 2413 c7 -3 16 -2 19 1 4 3 -2 6 -13 5 -11 0 -14 -3 -6 -6z"/>
<path d="M3671 2404 c0 -11 3 -14 6 -6 3 7 2 16 -1 19 -3 4 -6 -2 -5 -13z"/>
<path d="M1133 2395 c-35 -24 -72 -96 -79 -151 -5 -40 -4 -47 6 -37 16 15 53
74 80 128 11 22 20 33 20 24 0 -8 -13 -35 -28 -60 -15 -24 -39 -62 -52 -84
l-25 -40 30 19 c72 45 87 72 99 171 6 45 5 48 -8 32 -12 -16 -15 -16 -18 -2
-3 14 -5 14 -25 0z"/>
<path d="M1365 2378 c8 -27 35 -58 35 -41 0 19 -22 63 -32 63 -5 0 -6 -10 -3
-22z"/>
<path d="M2101 2364 c0 -11 3 -14 6 -6 3 7 2 16 -1 19 -3 4 -6 -2 -5 -13z"/>
<path d="M2125 2354 c-14 -15 -21 -37 -23 -78 -1 -34 -11 -74 -23 -99 -20 -38
-22 -40 -35 -22 -8 10 -14 37 -14 59 l0 41 -28 -29 -27 -30 23 -49 c32 -66 27
-69 -58 -33 -10 4 -21 -4 -33 -26 -12 -20 -13 -27 -4 -20 12 10 13 4 9 -40 -7
-80 -59 -188 -90 -188 -7 0 -18 -11 -24 -25 -6 -14 -15 -25 -20 -25 -5 0 -6
-5 -3 -10 3 -6 0 -12 -7 -15 -8 -3 -14 -14 -15 -25 -1 -16 8 -11 43 24 39 40
108 76 120 63 5 -4 -30 -40 -71 -73 -11 -8 -14 -12 -6 -8 11 5 13 3 7 -11 -13
-35 99 72 132 126 30 49 45 62 22 18 -20 -37 -1 -18 56 54 66 84 155 260 162
322 4 40 1 47 -35 82 l-39 38 -19 -21z m-68 -286 c-2 -13 -4 -3 -4 22 0 25 2
35 4 23 2 -13 2 -33 0 -45z m-56 -56 c5 -13 9 -35 9 -50 0 -21 2 -24 10 -12
11 17 13 10 4 -14 -13 -35 -95 101 -94 155 1 17 58 -47 71 -79z m49 7 c0 -11
-4 -17 -10 -14 -5 3 -10 13 -10 21 0 8 5 14 10 14 6 0 10 -9 10 -21z"/>
<path d="M3937 2309 c4 -13 8 -18 11 -10 2 7 -1 18 -6 23 -8 8 -9 4 -5 -13z"/>
<path d="M3459 2283 c0 -25 -1 -26 -9 -8 -6 12 -7 -18 -3 -80 3 -55 9 -107 14
-116 5 -9 5 -20 1 -24 -4 -5 -1 -5 6 -1 6 4 13 26 13 49 l2 42 6 -35 7 -35 7
40 c11 66 8 122 -10 160 -20 42 -33 45 -34 8z m8 -65 c-3 -7 -5 -2 -5 12 0 14
2 19 5 13 2 -7 2 -19 0 -25z m10 -55 c-3 -10 -5 -4 -5 12 0 17 2 24 5 18 2 -7
2 -21 0 -30z"/>
<path d="M3875 2299 c6 -9 3 -10 -11 -5 -10 4 -15 4 -12 0 4 -3 -18 -36 -48
-72 -55 -67 -60 -77 -46 -100 7 -10 14 -8 34 8 30 23 43 26 32 8 -4 -7 7 0 24
16 32 30 41 43 22 31 -5 -3 -10 -2 -10 3 0 12 33 41 44 39 5 -1 10 7 11 18 2
11 6 29 10 39 6 14 5 17 -3 12 -6 -4 -21 -2 -33 5 -17 9 -20 8 -14 -2z m-40
-91 c-62 -68 -85 -90 -60 -58 25 33 98 110 103 110 3 0 -17 -24 -43 -52z m25
-32 c0 -2 -8 -10 -17 -17 -16 -13 -17 -12 -4 4 13 16 21 21 21 13z"/>
<path d="M1327 2278 c9 -10 18 -16 21 -13 3 3 15 -3 26 -12 12 -10 9 -4 -7 13
-15 17 -34 31 -42 31 -13 0 -12 -3 2 -19z"/>
<path d="M3666 2277 c3 -10 9 -15 12 -12 3 3 0 11 -7 18 -10 9 -11 8 -5 -6z"/>
<path d="M3422 2250 c0 -14 2 -19 5 -12 2 6 2 18 0 25 -3 6 -5 1 -5 -13z"/>
<path d="M3522 2210 c0 -19 2 -27 5 -17 2 9 2 25 0 35 -3 9 -5 1 -5 -18z"/>
<path d="M1390 2215 c0 -15 30 -62 54 -84 14 -13 23 -27 21 -32 -3 -4 0 -11 6
-15 8 -4 9 -3 5 4 -9 15 -5 15 29 2 19 -7 39 -7 67 2 l39 12 -28 12 -28 13 35
-6 35 -5 -24 17 c-30 22 -181 86 -181 76 0 -4 18 -17 40 -30 22 -12 40 -24 40
-27 0 -7 -41 15 -77 43 -18 13 -33 21 -33 18z m150 -75 c8 -5 11 -10 5 -10 -5
0 -17 5 -25 10 -8 5 -10 10 -5 10 6 0 17 -5 25 -10z"/>
<path d="M1294 2155 c-8 -33 2 -72 30 -115 13 -19 27 -46 31 -60 26 -83 131
-233 146 -208 7 11 9 10 9 -1 0 -8 2 -12 5 -9 7 6 -46 159 -84 243 -18 39 -46
84 -63 102 -19 20 -27 36 -23 45 6 10 5 10 -4 2 -12 -11 -10 -17 102 -231 10
-20 16 -37 14 -39 -2 -2 -38 64 -80 146 -65 129 -77 147 -83 125z m205 -360
c0 -5 -8 6 -19 25 -11 19 -19 40 -19 45 0 6 8 -6 19 -25 11 -19 19 -39 19 -45z"/>
<path d="M2265 2152 c-16 -11 -43 -33 -59 -50 -16 -17 -34 -28 -39 -25 -6 4
-8 0 -4 -10 3 -9 2 -19 -3 -22 -6 -3 -14 -14 -19 -23 -7 -13 7 -10 57 15 62
29 114 39 182 34 35 -3 -127 -68 -209 -84 -54 -10 -67 -17 -93 -49 -16 -21
-28 -38 -26 -38 2 0 22 9 44 19 77 37 159 54 211 44 l48 -9 -90 -28 c-49 -16
-121 -33 -160 -39 -68 -10 -72 -12 -137 -75 -37 -36 -65 -69 -63 -73 3 -4 -7
-12 -23 -17 -35 -14 -79 -49 -70 -57 3 -4 17 -1 30 6 12 7 27 12 32 11 5 -2
12 1 15 6 3 4 26 16 50 26 35 13 42 14 33 3 -7 -8 -27 -18 -45 -21 l-32 -7 35
-19 c51 -27 104 -34 163 -19 l52 12 -70 18 c-38 10 -74 18 -80 19 -5 0 -1 6
10 12 23 13 177 17 220 5 16 -5 27 -5 22 -1 -4 4 -1 14 7 23 13 15 6 16 -75
12 -49 -1 -97 0 -107 4 -40 15 80 49 203 57 38 3 42 6 72 63 33 60 86 189 98
235 6 24 3 26 -52 37 -32 7 -67 15 -78 18 -11 3 -33 -3 -50 -13z m-130 -308
c-26 -21 -156 -84 -172 -84 -48 0 55 77 120 89 66 14 75 13 52 -5z"/>
<path d="M1271 2134 c0 -11 3 -14 6 -6 3 7 2 16 -1 19 -3 4 -6 -2 -5 -13z"/>
<path d="M3731 2134 c0 -11 3 -14 6 -6 3 7 2 16 -1 19 -3 4 -6 -2 -5 -13z"/>
<path d="M3431 2114 c0 -11 3 -14 6 -6 3 7 2 16 -1 19 -3 4 -6 -2 -5 -13z"/>
<path d="M3670 2060 c-8 -5 -11 -12 -7 -16 4 -4 1 -14 -5 -23 -10 -12 -7 -12
8 2 11 9 21 24 21 32 0 8 -1 15 -1 15 -1 0 -8 -4 -16 -10z"/>
<path d="M3820 2040 c-7 -13 -7 -20 -1 -20 6 0 15 9 21 20 7 13 7 20 1 20 -6
0 -15 -9 -21 -20z"/>
<path d="M3968 2043 c6 -2 18 -2 25 0 6 3 1 5 -13 5 -14 0 -19 -2 -12 -5z"/>
<path d="M3148 2033 c7 -3 16 -2 19 1 4 3 -2 6 -13 5 -11 0 -14 -3 -6 -6z"/>
<path d="M3944 2015 c-18 -15 -18 -15 10 -13 16 2 31 9 34 16 5 17 -20 15 -44
-3z"/>
<path d="M3189 1996 c6 -7 8 -15 5 -18 -3 -3 13 -41 35 -84 35 -69 40 -75 41
-49 2 32 4 29 15 -20 7 -27 8 -28 15 -10 5 11 9 38 9 61 1 59 -32 105 -88 121
-35 10 -41 10 -32 -1z m68 -75 c8 -18 12 -35 10 -38 -3 -2 -10 11 -16 28 -6
18 -19 42 -29 53 -16 20 -16 20 2 6 11 -8 25 -30 33 -49z"/>
<path d="M3270 1996 c0 -2 8 -10 18 -17 15 -13 16 -12 3 4 -13 16 -21 21 -21
13z"/>
<path d="M3481 1954 c0 -11 3 -14 6 -6 3 7 2 16 -1 19 -3 4 -6 -2 -5 -13z"/>
<path d="M3749 1942 l-24 -27 25 21 c14 12 31 19 38 17 6 -3 12 -3 12 0 0 18
-32 11 -51 -11z"/>
<path d="M3788 1903 c12 -2 32 -2 45 0 12 2 2 4 -23 4 -25 0 -35 -2 -22 -4z"/>
<path d="M3667 1889 c7 -7 15 -10 18 -7 3 3 -2 9 -12 12 -14 6 -15 5 -6 -5z"/>
<path d="M3408 1874 c-5 -4 -8 -16 -8 -28 0 -14 3 -17 11 -9 6 6 9 19 7 28 -1
9 -6 13 -10 9z"/>
<path d="M3482 1860 c0 -14 2 -19 5 -12 2 6 2 18 0 25 -3 6 -5 1 -5 -13z"/>
<path d="M3880 1876 c0 -2 8 -10 18 -17 15 -13 16 -12 3 4 -13 16 -21 21 -21
13z"/>
<path d="M3920 1870 c20 -13 50 -13 50 0 0 6 -15 10 -32 10 -25 0 -29 -3 -18
-10z"/>
<path d="M3382 1850 c0 -14 2 -19 5 -12 2 6 2 18 0 25 -3 6 -5 1 -5 -13z"/>
<path d="M3603 1855 c0 -8 7 -17 15 -20 21 -8 22 -3 2 17 -13 14 -17 15 -17 3z"/>
<path d="M3778 1863 c6 -2 18 -2 25 0 6 3 1 5 -13 5 -14 0 -19 -2 -12 -5z"/>
<path d="M3673 1853 c9 -2 23 -2 30 0 6 3 -1 5 -18 5 -16 0 -22 -2 -12 -5z"/>
<path d="M3775 1840 c3 -5 13 -10 21 -10 8 0 14 5 14 10 0 6 -9 10 -21 10 -11
0 -17 -4 -14 -10z"/>
<path d="M3530 1826 c0 -2 7 -7 16 -10 8 -3 12 -2 9 4 -6 10 -25 14 -25 6z"/>
<path d="M1420 1816 c0 -2 8 -10 18 -17 15 -13 16 -12 3 4 -13 16 -21 21 -21
13z"/>
<path d="M2368 1813 c6 -2 9 -10 6 -15 -4 -7 -2 -8 4 -4 18 11 14 26 -5 25
-11 0 -13 -3 -5 -6z"/>
<path d="M3778 1813 c6 -2 18 -2 25 0 6 3 1 5 -13 5 -14 0 -19 -2 -12 -5z"/>
<path d="M3305 1791 c-3 -8 -10 -56 -15 -105 -4 -50 -11 -99 -15 -108 -12 -31
4 -19 31 22 25 37 26 46 21 113 -4 45 -2 78 4 84 6 6 5 10 -5 10 -8 0 -18 -7
-21 -16z"/>
<path d="M3410 1799 c0 -5 -4 -8 -9 -5 -5 4 -7 -4 -3 -16 3 -14 1 -19 -6 -14
-8 5 -10 1 -6 -9 4 -9 10 -13 15 -8 10 11 23 63 15 63 -3 0 -6 -5 -6 -11z"/>
<path d="M3728 1803 c7 -3 16 -2 19 1 4 3 -2 6 -13 5 -11 0 -14 -3 -6 -6z"/>
<path d="M3677 1776 c-63 -17 -79 -33 -29 -29 34 2 35 1 7 -5 l-30 -8 40 -14
c22 -7 68 -16 104 -20 l64 -6 -29 23 c-33 26 -25 31 11 7 16 -11 25 -12 25 -5
0 18 -50 61 -71 61 -9 0 -23 2 -31 4 -7 3 -35 -1 -61 -8z m90 -32 c-3 -3 -12
-4 -19 -1 -8 3 -5 6 6 6 11 1 17 -2 13 -5z"/>
<path d="M3408 1739 l-48 -41 -9 23 -10 24 0 -22 c-1 -13 4 -23 9 -23 15 0 12
-22 -9 -63 -10 -20 -14 -37 -9 -37 6 0 4 -8 -3 -17 -13 -16 -12 -17 4 -4 9 8
15 16 13 19 -3 2 17 31 45 64 50 61 86 118 72 118 -5 -1 -29 -19 -55 -41z"/>
<path d="M3484 1748 l-19 -23 23 19 c21 18 27 26 19 26 -2 0 -12 -10 -23 -22z"/>
<path d="M1733 1730 c2 -8 0 -23 -5 -32 -6 -12 -5 -18 2 -18 17 0 23 27 10 47
-7 11 -10 12 -7 3z"/>
<path d="M3578 1723 c7 -3 16 -2 19 1 4 3 -2 6 -13 5 -11 0 -14 -3 -6 -6z"/>
<path d="M3435 1690 c-3 -6 1 -7 9 -4 18 7 21 14 7 14 -6 0 -13 -4 -16 -10z"/>
<path d="M3192 1670 c0 -14 2 -19 5 -12 2 6 2 18 0 25 -3 6 -5 1 -5 -13z"/>
<path d="M2188 1673 c7 -3 16 -2 19 1 4 3 -2 6 -13 5 -11 0 -14 -3 -6 -6z"/>
<path d="M3165 1656 c-3 -9 -7 -23 -10 -31 -2 -8 -2 -15 1 -15 7 0 25 52 20
58 -3 3 -8 -3 -11 -12z"/>
<path d="M1808 1603 c7 -3 16 -2 19 1 4 3 -2 6 -13 5 -11 0 -14 -3 -6 -6z"/>
<path d="M3092 1559 c-24 -27 -49 -49 -55 -49 -6 0 9 21 33 48 l45 47 -47 -44
c-26 -25 -45 -47 -43 -50 3 -2 -2 -13 -12 -23 -31 -35 3 -18 57 29 32 27 43
34 26 15 -32 -34 -159 -127 -137 -99 8 10 9 17 3 17 -6 0 -14 -4 -17 -10 -3
-5 -11 -10 -16 -10 -6 0 -7 5 -3 12 5 7 3 8 -5 4 -7 -5 -10 -11 -7 -14 3 -3
-2 -14 -11 -24 -35 -39 -23 -49 25 -21 119 68 211 150 196 175 -3 5 0 16 7 24
6 8 10 16 8 18 -2 2 -23 -18 -47 -45z m-157 -149 c-3 -5 -16 -15 -28 -21 -19
-9 -19 -8 3 10 28 23 34 26 25 11z"/>
<path d="M1704 1568 c-4 -7 -3 -10 1 -5 5 4 20 -3 34 -15 15 -14 20 -16 11 -5
-12 17 -11 18 16 11 20 -4 26 -3 19 4 -17 17 -72 25 -81 10z"/>
<path d="M1838 1553 c7 -3 16 -2 19 1 4 3 -2 6 -13 5 -11 0 -14 -3 -6 -6z"/>
<path d="M1948 1553 c6 -2 18 -2 25 0 6 3 1 5 -13 5 -14 0 -19 -2 -12 -5z"/>
<path d="M2449 1543 c-13 -17 -13 -17 6 -3 11 8 22 16 24 17 2 2 0 3 -6 3 -6
0 -17 -8 -24 -17z"/>
<path d="M3388 1543 c7 -3 16 -2 19 1 4 3 -2 6 -13 5 -11 0 -14 -3 -6 -6z"/>
<path d="M2462 1528 c-7 -7 -12 -19 -12 -27 0 -11 4 -10 20 4 21 19 26 35 12
35 -4 0 -13 -5 -20 -12z"/>
<path d="M3230 1514 c-42 -29 -36 -30 20 -5 23 10 36 21 28 23 -7 3 -29 -5
-48 -18z"/>
<path d="M3338 1533 c7 -3 16 -2 19 1 4 3 -2 6 -13 5 -11 0 -14 -3 -6 -6z"/>
<path d="M3325 1516 c-33 -7 -73 -20 -90 -30 l-30 -17 45 5 c31 4 39 2 25 -4
-32 -14 2 -12 92 5 43 8 110 16 148 17 l70 1 -65 7 -65 7 50 2 c38 2 45 4 30
11 -28 12 -139 10 -210 -4z m103 -13 c-10 -2 -28 -2 -40 0 -13 2 -5 4 17 4 22
1 32 -1 23 -4z m-71 -9 c-3 -3 -12 -4 -19 -1 -8 3 -5 6 6 6 11 1 17 -2 13 -5z"/>
<path d="M2578 1498 c-21 -21 -21 -23 -5 -26 18 -4 57 23 57 40 0 16 -30 8
-52 -14z"/>
<path d="M3610 1516 c0 -2 8 -10 18 -17 15 -13 16 -12 3 4 -13 16 -21 21 -21
13z"/>
<path d="M2474 1488 l-19 -23 23 19 c21 18 27 26 19 26 -2 0 -12 -10 -23 -22z"/>
<path d="M1900 1496 c0 -2 8 -10 18 -17 15 -13 16 -12 3 4 -13 16 -21 21 -21
13z"/>
<path d="M2629 1483 c-13 -16 -12 -17 4 -4 16 13 21 21 13 21 -2 0 -10 -8 -17
-17z"/>
<path d="M3458 1473 c7 -3 16 -2 19 1 4 3 -2 6 -13 5 -11 0 -14 -3 -6 -6z"/>
<path d="M2338 1463 c7 -3 16 -2 19 1 4 3 -2 6 -13 5 -11 0 -14 -3 -6 -6z"/>
<path d="M2975 1460 c-3 -5 -2 -10 4 -10 5 0 13 5 16 10 3 6 2 10 -4 10 -5 0
-13 -4 -16 -10z"/>
<path d="M3175 1460 c-3 -6 1 -7 9 -4 18 7 21 14 7 14 -6 0 -13 -4 -16 -10z"/>
<path d="M2326 1433 c-6 -14 -5 -15 5 -6 7 7 10 15 7 18 -3 3 -9 -2 -12 -12z"/>
<path d="M2775 1430 c-3 -5 -11 -7 -18 -4 -7 2 -33 -10 -58 -28 -24 -18 -84
-49 -134 -69 -82 -34 -87 -38 -62 -45 31 -7 137 15 191 41 20 10 46 36 64 66
17 27 29 49 27 49 -2 0 -6 -4 -10 -10z m-40 -36 c-33 -27 -145 -88 -151 -81
-2 2 19 14 47 28 29 13 68 36 88 51 45 34 56 36 16 2z m-198 -100 c-3 -3 -12
-4 -19 -1 -8 3 -5 6 6 6 11 1 17 -2 13 -5z"/>
<path d="M3002 1415 c-44 -30 -45 -32 -27 -39 9 -3 13 -2 10 4 -4 6 12 19 35
29 24 10 36 21 28 23 -7 3 -28 -5 -46 -17z"/>
<path d="M2849 1383 l-24 -28 28 24 c25 23 32 31 24 31 -2 0 -14 -12 -28 -27z"/>
<path d="M2408 1366 c-56 -21 -82 -36 -60 -36 5 0 19 -3 29 -6 15 -5 15 -4 3
5 -12 8 -8 11 18 11 32 0 91 34 75 42 -4 3 -34 -5 -65 -16z"/>
<path d="M2478 1353 c7 -3 16 -2 19 1 4 3 -2 6 -13 5 -11 0 -14 -3 -6 -6z"/>
<path d="M2897 1338 c-7 -4 22 -7 63 -7 79 1 78 6 -3 11 -27 2 -54 0 -60 -4z"/>
<path d="M2228 1323 c6 -2 18 -2 25 0 6 3 1 5 -13 5 -14 0 -19 -2 -12 -5z"/>
<path d="M2825 1305 l-50 -15 50 6 c32 3 45 2 36 -4 -17 -12 54 -28 159 -38
41 -3 99 -14 128 -24 76 -27 96 -14 35 21 -26 15 -61 35 -78 45 -40 23 -210
29 -280 9z m158 -12 c-7 -2 -21 -2 -30 0 -10 3 -4 5 12 5 17 0 24 -2 18 -5z
m60 -10 c-7 -2 -19 -2 -25 0 -7 3 -2 5 12 5 14 0 19 -2 13 -5z m57 -13 c18
-12 2 -12 -25 0 -13 6 -15 9 -5 9 8 0 22 -4 30 -9z m70 -26 c23 -9 39 -18 37
-20 -2 -3 -24 4 -48 15 -54 24 -45 27 11 5z"/>
<path d="M2228 1303 c7 -3 16 -2 19 1 4 3 -2 6 -13 5 -11 0 -14 -3 -6 -6z"/>
<path d="M2655 1294 l-30 -14 35 6 c19 4 44 10 55 15 18 7 17 8 -5 8 -14 -1
-38 -7 -55 -15z"/>
<path d="M2348 1293 c12 -2 32 -2 45 0 12 2 2 4 -23 4 -25 0 -35 -2 -22 -4z"/>
<path d="M2227 1278 c4 -7 8 -16 8 -20 0 -3 3 -9 7 -13 3 -4 5 1 4 12 -2 10 4
21 13 25 11 4 7 7 -12 7 -20 1 -26 -3 -20 -11z"/>
<path d="M2508 1253 c7 -3 16 -2 19 1 4 3 -2 6 -13 5 -11 0 -14 -3 -6 -6z"/>
<path d="M2663 1248 c35 -9 36 -11 20 -24 -17 -13 -17 -14 1 -7 13 4 17 3 12
-5 -5 -8 -1 -10 10 -5 12 4 15 3 10 -5 -5 -8 -1 -10 10 -5 12 4 15 3 10 -5 -4
-7 -2 -10 7 -6 7 2 35 -4 60 -15 26 -11 47 -18 47 -14 0 3 7 0 15 -7 19 -16
19 0 0 26 -20 26 -19 39 3 23 14 -11 13 -10 -2 9 -20 23 -32 30 -20 10 5 -8 2
-9 -10 -5 -36 14 -175 47 -193 46 -10 -1 -1 -6 20 -11z m107 -34 c23 -9 39
-18 37 -20 -2 -2 -25 5 -53 16 -27 10 -43 19 -37 20 7 0 31 -7 53 -16z m71
-41 c13 -16 12 -17 -3 -4 -10 7 -18 15 -18 17 0 8 8 3 21 -13z"/>
<path d="M2274 1236 c1 -8 5 -18 8 -22 4 -3 5 1 4 10 -1 8 -5 18 -8 22 -4 3
-5 -1 -4 -10z"/>
<path d="M2958 1243 c7 -3 16 -2 19 1 4 3 -2 6 -13 5 -11 0 -14 -3 -6 -6z"/>
<path d="M2416 1215 c-11 -8 -15 -15 -9 -15 6 0 16 7 23 15 16 19 11 19 -14 0z"/>
<path d="M2438 1193 c6 -2 18 -2 25 0 6 3 1 5 -13 5 -14 0 -19 -2 -12 -5z"/>
<path d="M2588 1183 c7 -3 16 -2 19 1 4 3 -2 6 -13 5 -11 0 -14 -3 -6 -6z"/>
<path d="M2356 1172 c-3 -5 4 -18 17 -28 21 -19 21 -19 7 0 -8 11 -13 21 -12
23 2 3 1 7 -1 9 -3 3 -8 1 -11 -4z"/>
<path d="M2458 1173 c6 -2 18 -2 25 0 6 3 1 5 -13 5 -14 0 -19 -2 -12 -5z"/>
<path d="M2562 1161 c-11 -7 -10 -10 3 -15 25 -9 75 -7 75 3 0 19 -54 28 -78
12z"/>
<path d="M2450 1080 c0 -5 -1 -13 -2 -17 -2 -3 6 -7 16 -9 11 -1 32 -12 48
-24 16 -12 27 -16 26 -8 -5 24 -88 79 -88 58z"/>
<path d="M2534 1055 c22 -17 46 -20 46 -6 0 10 -25 21 -48 21 -15 -1 -14 -3 2
-15z"/>
<path d="M2490 1026 c0 -2 8 -10 18 -17 15 -13 16 -12 3 4 -13 16 -21 21 -21
13z"/>
<path d="M2470 1016 c0 -2 8 -10 18 -17 15 -13 16 -12 3 4 -13 16 -21 21 -21
13z"/>
</g>
</svg>
